<svg width="26" height="19" viewBox="0 0 26 19" fill="none" xmlns="http://www.w3.org/2000/svg">
<path fill-rule="evenodd" clip-rule="evenodd" d="M8.80104 16.7678C8.18045 16.2903 7.81132 15.719 7.81132 15.0577V11.5433C7.81525 11.5159 7.82149 11.4889 7.82998 11.4625C7.8203 11.4174 7.81406 11.3717 7.81132 11.3256C7.81132 9.01799 12.1903 7.81129 16.5194 7.81129C20.8486 7.81129 25.2275 9.01799 25.2275 11.3256C25.2248 11.3717 25.2185 11.4174 25.2089 11.4625C25.2174 11.4889 25.2236 11.5159 25.2275 11.5433V15.0577C25.2248 15.2975 25.174 15.5344 25.0782 15.7543C25.0812 15.7561 25.0841 15.758 25.0871 15.7598C23.6615 17.7021 20.8472 19.0075 16.8304 19.0075C13.5566 19.0075 10.7125 18.1403 8.80104 16.7678ZM17.1414 14.8275C18.6101 14.8011 20.0709 14.607 21.4955 14.2491V16.6873C20.0647 17.0845 18.5888 17.2956 17.1041 17.3156C17.126 17.26 17.1386 17.2011 17.1414 17.1414V14.8275ZM15.9347 17.3156C14.45 17.2956 12.9741 17.0845 11.5434 16.6873V14.2491C12.968 14.607 14.4288 14.8011 15.8974 14.8275V17.1414C15.9002 17.2011 15.9128 17.26 15.9347 17.3156ZM22.7084 13.8634C23.1554 13.6966 23.5829 13.4818 23.9835 13.2228V15.0577C23.9835 15.4184 23.5419 15.8414 22.7395 16.2208V14.0314C22.7352 13.9744 22.7247 13.9181 22.7084 13.8634ZM10.2993 16.2208C9.49696 15.8414 9.05534 15.4184 9.05534 15.0577V13.2228C9.45594 13.4818 9.88348 13.6966 10.3304 13.8634C10.3141 13.9181 10.3037 13.9744 10.2993 14.0314V16.2208Z" fill="#7A90C0"/>
<path fill-rule="evenodd" clip-rule="evenodd" d="M1.35765 9.30449C1.35915 9.3006 1.36065 9.2967 1.36218 9.29282L1.3995 9.23684C0.534912 8.70813 -1.37091e-05 8.04258 -1.37091e-05 7.24641V3.73207C0.00391224 3.70464 0.0101551 3.67759 0.0186469 3.65121C0.00896239 3.60614 0.00272385 3.56039 -1.37091e-05 3.51437C-1.37091e-05 1.20672 4.37892 3.04865e-05 8.70809 3.04865e-05C13.0373 3.04865e-05 17.4162 1.20672 17.4162 3.51437C17.4135 3.56039 17.4072 3.60614 17.3975 3.65121C17.406 3.67759 17.4123 3.70464 17.4162 3.73207V7.24641C17.4134 7.48627 17.3627 7.72314 17.2669 7.94306C17.5268 8.10355 17.7407 8.26663 17.9159 8.42897C15.9451 10.103 12.6948 11.1962 9.01909 11.1962C6.03126 11.1962 3.3246 10.4739 1.35765 9.30449ZM9.33009 7.01627C10.7987 6.98985 12.2596 6.79577 13.6841 6.4378V8.87607C12.2534 9.27322 10.7775 9.48437 9.29277 9.5043C9.31469 9.44869 9.3273 9.38985 9.33009 9.33014V7.01627ZM8.1234 9.5043C6.6387 9.48437 5.16276 9.27322 3.73203 8.87607V6.4378C5.15662 6.79577 6.61744 6.98985 8.08608 7.01627V9.33014C8.08887 9.38985 8.10148 9.44869 8.1234 9.5043ZM14.8971 6.05216C15.344 5.88537 15.7716 5.67055 16.1722 5.41149V7.24641C16.1722 7.60718 15.7305 8.03014 14.9282 8.40957V6.2201C14.9238 6.16317 14.9134 6.10687 14.8971 6.05216ZM2.48802 8.40957C1.68563 8.03014 1.244 7.60718 1.244 7.24641V5.41149C1.64461 5.67055 2.07215 5.88537 2.51911 6.05216C2.50277 6.10687 2.49234 6.16317 2.48802 6.2201V8.40957Z" fill="#7A90C0"/>
</svg>
