<svg width="31" height="20" viewBox="0 0 31 20" fill="none" xmlns="http://www.w3.org/2000/svg">
<g opacity="0.2">
<path d="M5.09907 9.01112C6.50712 9.01112 7.64857 7.86967 7.64857 6.46162C7.64857 5.05356 6.50712 3.91211 5.09907 3.91211C3.69101 3.91211 2.54956 5.05356 2.54956 6.46162C2.54956 7.86967 3.69101 9.01112 5.09907 9.01112Z" fill="white"/>
<path d="M8.5026 10.7958C7.841 11.2938 7.30426 11.9389 6.9348 12.6801C6.56534 13.4212 6.37327 14.2381 6.37376 15.0662V15.3849H0.956065C0.433416 15.3849 0 14.9515 0 14.4288V13.7915C0 11.8538 1.56795 10.2859 3.50557 10.2859H6.69245C7.35532 10.2859 7.97995 10.4771 8.5026 10.7958Z" fill="white"/>
<path d="M25.4951 9.01112C26.9031 9.01112 28.0446 7.86967 28.0446 6.46162C28.0446 5.05356 26.9031 3.91211 25.4951 3.91211C24.087 3.91211 22.9456 5.05356 22.9456 6.46162C22.9456 7.86967 24.087 9.01112 25.4951 9.01112Z" fill="white"/>
<path d="M30.594 13.7915V14.4288C30.594 14.9515 30.1606 15.3849 29.638 15.3849H24.2203V15.0662C24.2203 13.3198 23.3789 11.7646 22.0914 10.7958C22.6141 10.4771 23.2387 10.2859 23.9016 10.2859H27.0885C29.0261 10.2859 30.594 11.8538 30.594 13.7915Z" fill="white"/>
<path d="M15.297 9.64852C17.4091 9.64852 19.1213 7.93634 19.1213 5.82426C19.1213 3.71218 17.4091 2 15.297 2C13.185 2 11.4728 3.71218 11.4728 5.82426C11.4728 7.93634 13.185 9.64852 15.297 9.64852Z" fill="white"/>
<path d="M18.8026 11.5605H11.7915C10.8619 11.5612 9.97067 11.9308 9.31339 12.5881C8.65612 13.2453 8.28656 14.1366 8.28589 15.0661V16.9782C8.28589 17.506 8.71421 17.9343 9.24195 17.9343H21.3521C21.6057 17.9343 21.8489 17.8336 22.0281 17.6543C22.2074 17.475 22.3082 17.2318 22.3082 16.9782V15.0661C22.3075 14.1366 21.9379 13.2453 21.2807 12.5881C20.6234 11.9308 19.7321 11.5612 18.8026 11.5605Z" fill="white"/>
</g>
</svg>
