<svg width="716" height="819" viewBox="0 0 716 819" fill="none" xmlns="http://www.w3.org/2000/svg">
<g clip-path="url(#clip0_2294_540)">
<path d="M383.06 392.777C376.923 390.731 366.694 390.22 358 397.38C349.305 390.22 339.077 390.731 332.94 392.777C327.825 394.823 323.734 395.846 316.062 395.846C323.734 411.188 339.588 421.928 358 421.928C376.411 421.928 392.265 411.188 399.937 395.846C392.265 395.846 388.174 394.311 383.06 392.777Z" fill="white"/>
<path d="M358 0C231.677 0 128.88 102.286 128.88 228.609C128.88 337.031 204.06 427.554 305.323 451.591C225.028 408.631 192.297 309.926 231.166 227.586C237.303 260.317 258.783 289.469 290.491 304.3C249.066 207.64 279.751 93.5914 365.16 30.6857C348.283 87.9657 373.854 140.643 429.6 180.534C493.017 226.051 495.574 319.131 439.828 369.251C461.82 364.137 482.788 351.863 498.131 332.94C488.414 382.037 457.728 426.531 410.677 451.591C511.94 428.066 587.12 337.031 587.12 228.609C587.12 102.286 484.323 0 358 0Z" fill="white"/>
<path d="M705.26 531.374V554.9C700.146 551.32 693.497 550.297 687.871 546.717C683.269 544.16 681.734 539.046 681.734 533.931V512.451H670.483V533.931C670.483 541.091 672.529 548.763 678.666 553.366C682.757 556.434 687.36 557.968 691.963 559.503C696.054 561.037 700.657 562.571 703.214 566.151C705.26 568.708 705.771 571.777 705.771 575.357V582.006H716.511V531.374H705.26ZM627.011 550.297C629.569 547.228 632.126 544.16 633.66 540.58C635.194 537 635.706 533.42 635.194 529.84C634.171 522.68 629.057 516.543 622.409 513.986C615.76 510.917 607.066 510.917 600.417 514.497C593.769 517.566 589.166 524.214 588.654 531.374C588.143 539.046 591.723 545.694 597.86 550.297L603.997 542.626C601.951 540.58 599.906 538.023 599.394 534.954C598.883 531.886 599.394 529.328 601.44 526.771C605.02 522.168 612.18 520.634 617.806 523.191C620.363 524.726 622.92 526.771 623.431 529.328C624.454 532.397 623.943 535.466 622.92 538.023C621.386 540.58 619.851 543.137 617.806 545.694C610.134 554.9 602.974 563.594 595.303 572.8C592.746 575.868 590.189 579.448 587.12 582.517H637.24V572.8H608.6L627.011 550.297ZM542.626 557.457C538.534 567.174 527.794 573.823 517.054 572.8C506.314 572.288 497.109 564.617 494.04 554.9C490.971 544.671 494.551 533.42 503.246 526.771C511.94 520.123 524.214 520.123 533.42 526.26C543.649 532.908 547.74 546.206 542.626 557.457ZM545.183 521.657C533.931 510.917 516.543 508.36 502.734 514.497C488.414 520.634 480.231 535.466 481.254 550.297C482.789 565.128 494.04 577.914 508.871 581.494C523.703 585.074 540.58 579.96 549.274 567.174C558.48 554.9 557.969 537.511 548.763 525.237C547.74 524.214 546.206 523.191 545.183 521.657ZM440.34 550.297C442.897 547.228 445.454 544.16 446.989 540.58C448.523 537 449.034 533.42 448.523 529.84C447.5 522.68 442.386 516.543 435.737 513.986C429.089 510.917 420.394 510.917 413.746 514.497C407.097 517.566 402.494 524.214 401.983 531.374C401.471 539.046 405.051 545.694 411.189 550.297L417.326 542.626C415.28 540.58 413.234 538.023 412.723 534.954C412.211 531.886 412.723 529.328 414.769 526.771C418.349 522.168 425.509 520.634 431.134 523.191C433.691 524.726 436.249 526.771 436.76 529.328C437.783 532.397 437.271 535.466 436.249 538.023C434.714 540.58 433.18 543.137 431.134 545.694C423.463 554.9 416.303 563.594 408.631 572.8L400.449 582.517H450.569V572.8H421.929L440.34 550.297ZM337.031 548.763C332.94 545.694 328.337 544.16 323.734 542.114C319.131 540.58 314.529 539.046 310.949 535.466C307.88 532.397 308.903 527.283 311.46 524.214C314.529 521.146 319.643 520.634 323.734 521.657C328.337 523.191 331.406 527.283 331.406 531.886H342.657C342.657 526.771 341.123 522.168 337.543 518.077C333.963 514.497 329.36 512.451 324.246 511.428C319.131 510.917 313.506 511.428 308.903 513.986C304.3 516.543 300.72 520.123 299.186 524.726C297.651 529.328 298.163 534.954 300.209 539.046C302.766 543.648 307.369 546.206 312.483 548.251C317.597 550.297 323.734 551.831 328.849 554.9C330.894 556.434 332.429 557.968 332.94 560.014C333.451 562.06 333.451 564.617 332.429 566.663C329.871 571.777 323.223 573.311 318.109 572.288C312.483 571.266 307.88 566.663 307.88 560.526H297.14C297.14 566.151 299.186 571.266 303.277 575.357C307.369 579.448 312.994 581.494 319.131 582.006C325.269 582.517 331.406 581.494 336.52 577.914C341.123 574.846 344.191 569.731 344.703 564.617C344.191 558.991 342.146 552.854 337.031 548.763ZM251.623 528.306V582.006H262.874V526.771C258.783 526.771 255.203 527.283 251.623 528.306ZM251.623 522.168C255.203 521.146 258.783 520.634 262.874 520.634V512.451H251.623V522.168ZM188.206 522.68C195.366 522.68 202.526 526.26 203.037 533.42C203.549 537 202.526 540.58 199.969 543.137C197.411 546.206 193.32 547.74 189.74 549.786C185.137 551.831 181.046 553.877 176.954 557.457V522.68H188.206ZM205.083 555.923C204.06 555.411 202.526 554.9 200.991 554.388C204.571 552.343 208.151 550.297 210.709 547.228C212.754 544.16 214.289 541.091 214.8 537.511C215.823 529.84 213.266 522.68 206.617 518.077C197.923 511.94 187.183 512.963 176.954 512.963H166.214V582.517H177.466V576.38C177.466 571.777 180.023 567.174 184.114 565.128C188.206 562.571 193.831 562.571 197.923 564.106C202.014 566.151 205.083 570.243 205.594 574.334C206.106 576.891 205.594 579.96 205.594 582.517H216.846C216.846 578.937 216.846 574.846 216.334 571.266C214.8 564.617 210.709 558.991 205.083 555.923ZM117.629 555.923C110.98 549.274 101.263 547.228 92.0571 548.763V537.511C92.0571 535.466 92.0571 533.42 92.5686 531.374C93.5914 527.283 96.66 524.214 100.751 523.191C104.843 521.657 109.446 522.68 113.026 525.237C116.606 527.794 118.14 531.886 118.14 535.977V557.457C118.14 556.434 117.629 555.923 117.629 555.923ZM117.629 514.497C107.911 509.383 94.1029 510.917 86.9429 519.1C83.3629 523.191 81.3171 528.306 81.3171 533.42V582.006H92.0571V558.991C98.7057 557.968 105.866 558.991 111.491 562.571C116.606 566.151 118.651 571.266 118.651 576.891V581.494H129.903V534.954C129.391 526.771 125.811 518.588 117.629 514.497ZM35.2886 542.114C32.7314 545.694 28.1286 548.251 24.0371 550.297C19.4343 552.343 14.8314 554.9 11.2514 557.968V523.191H21.9914C28.1286 523.191 34.2657 524.726 36.8229 530.863C37.8457 533.931 37.3343 538.534 35.2886 542.114ZM35.8 515.52C30.6857 512.963 24.5486 512.963 18.9229 512.963H0V582.517H11.2514C11.2514 578.426 10.74 574.334 12.7857 570.754C15.3429 564.617 21.9914 562.06 27.6171 559.503C33.7543 556.434 40.4029 553.877 44.4943 548.251C48.0743 543.137 49.0971 537 48.0743 530.863C47.0514 523.703 41.9371 518.077 35.8 515.52Z" fill="white"/>
<path d="M229.632 758.449C259.289 758.449 283.332 734.407 283.332 704.749C283.332 675.091 259.289 651.049 229.632 651.049C199.974 651.049 175.932 675.091 175.932 704.749C175.932 734.407 199.974 758.449 229.632 758.449Z" stroke="#0081C8" stroke-width="10.2286" stroke-miterlimit="10"/>
<path d="M358 758.449C387.658 758.449 411.7 734.407 411.7 704.749C411.7 675.091 387.658 651.049 358 651.049C328.342 651.049 304.3 675.091 304.3 704.749C304.3 734.407 328.342 758.449 358 758.449Z" stroke="black" stroke-width="10.2286" stroke-miterlimit="10"/>
<path d="M485.857 758.449C515.515 758.449 539.557 734.407 539.557 704.749C539.557 675.091 515.515 651.049 485.857 651.049C456.2 651.049 432.157 675.091 432.157 704.749C432.157 734.407 456.2 758.449 485.857 758.449Z" stroke="#EE334E" stroke-width="10.2286" stroke-miterlimit="10"/>
<path d="M293.049 813.171C322.706 813.171 346.749 789.129 346.749 759.471C346.749 729.814 322.706 705.771 293.049 705.771C263.391 705.771 239.349 729.814 239.349 759.471C239.349 789.129 263.391 813.171 293.049 813.171Z" stroke="#FCB131" stroke-width="10.2286" stroke-miterlimit="10"/>
<path d="M421.929 813.171C451.586 813.171 475.629 789.129 475.629 759.471C475.629 729.814 451.586 705.771 421.929 705.771C392.271 705.771 368.229 729.814 368.229 759.471C368.229 789.129 392.271 813.171 421.929 813.171Z" stroke="#00A651" stroke-width="10.2286" stroke-miterlimit="10"/>
<path d="M346.237 648.491C329.36 644.399 306.857 649.002 285.377 661.277C251.623 680.711 233.723 712.931 245.485 732.877C253.157 745.662 270.545 750.777 291.514 747.708C282.308 745.662 274.637 740.548 270.545 733.388C258.783 712.931 276.683 681.222 310.437 661.788C322.2 654.628 334.985 650.025 346.237 648.491Z" fill="#EE334E"/>
<path d="M346.748 728.274C351.862 744.64 366.694 762.54 388.174 774.814C421.928 794.249 458.751 793.737 470.514 773.28C478.185 760.494 473.582 742.594 460.285 726.229C463.354 735.434 462.842 744.129 458.751 751.8C446.988 772.257 410.165 772.769 376.411 753.334C364.137 746.174 353.908 737.48 346.748 728.274Z" fill="#00A651"/>
<path d="M323.734 688.382C311.971 701.168 304.3 722.648 304.3 747.708C304.3 786.576 323.223 818.285 346.748 818.285C361.58 818.285 374.877 805.499 382.548 786.065C375.9 793.225 368.228 797.316 359.534 797.316C336.008 797.316 317.086 765.608 317.086 726.739C317.086 712.419 319.643 699.634 323.734 688.382Z" fill="#0081C8"/>
</g>
<defs>
<clipPath id="clip0_2294_540">
<rect width="716" height="818.286" fill="white"/>
</clipPath>
</defs>
</svg>
