<svg width="31" height="20" viewBox="0 0 31 20" fill="none" xmlns="http://www.w3.org/2000/svg">
<g opacity="0.2">
<path d="M9.34278 6.56429C8.92028 6.14608 8.93385 5.46429 9.34278 5.05L9.76778 4.62143L11.0464 3.34285C11.0728 3.31821 11.101 3.28749 11.1321 3.27142C11.3372 3.10362 11.5974 3.01802 11.8621 3.03122C12.1268 3.04441 12.3771 3.15548 12.5646 3.34285L14.2539 5.03214C14.3853 5.165 14.8217 5.60358 14.9471 5.72858C15.1338 5.91614 15.2447 6.16602 15.2586 6.4303C15.2724 6.69459 15.1882 6.95469 15.0221 7.16073C14.981 7.21001 14.5774 7.61716 14.5221 7.67144L13.6721 8.5218L13.2435 8.95038C12.8471 9.36538 12.1249 9.36574 11.7289 8.95038L9.34278 6.56429ZM8.76421 4.6175C8.551 4.36605 8.44002 4.04369 8.45325 3.71429C8.46648 3.38488 8.60295 3.07246 8.83564 2.83892C9.31064 2.36392 10.1106 2.33892 10.6178 2.76392C10.5928 2.78892 10.5642 2.81392 10.5428 2.83892L8.76421 4.6175ZM15.0257 8.17537C15.0775 8.11216 15.4864 7.72323 15.5292 7.66823L25.6164 17.7515C26.1275 18.2454 26.1282 19.1226 25.6164 19.6161C25.1221 20.1272 24.2461 20.1279 23.7521 19.6161L13.6685 9.53252C13.7007 9.50395 13.7257 9.47895 13.7471 9.45395L15.0257 8.17537ZM6.93563 11.8757C7.49388 10.3062 8.26928 8.82261 9.23921 7.46823L11.0749 9.30395C9.32921 11.3768 7.84992 13.694 6.67813 16.1301C6.61741 16.2586 6.49241 16.3336 6.3567 16.3336C6.15098 16.3365 5.97419 16.1486 6.00312 15.9372C6.15346 14.5515 6.46669 13.1883 6.93563 11.8757ZM22.1268 0.678197C19.6782 1.85356 17.3863 3.3305 15.3042 5.07464C14.9482 4.71393 13.8435 3.6125 13.4685 3.23892C15.968 1.45598 18.8821 0.342096 21.9336 0.00319419C22.3228 -0.0471632 22.4875 0.512125 22.1268 0.678197Z" fill="white"/>
</g>
</svg>
