<svg width="375" height="174" viewBox="0 0 375 174" fill="none" xmlns="http://www.w3.org/2000/svg">
<path d="M59.6316 113.449C89.2893 113.449 113.332 89.4065 113.332 59.7488C113.332 30.0911 89.2893 6.04883 59.6316 6.04883C29.974 6.04883 5.93164 30.0911 5.93164 59.7488C5.93164 89.4065 29.974 113.449 59.6316 113.449Z" stroke="#0081C8" stroke-width="10.2286" stroke-miterlimit="10"/>
<path d="M188 113.449C217.658 113.449 241.7 89.4065 241.7 59.7488C241.7 30.0911 217.658 6.04883 188 6.04883C158.342 6.04883 134.3 30.0911 134.3 59.7488C134.3 89.4065 158.342 113.449 188 113.449Z" stroke="black" stroke-width="10.2286" stroke-miterlimit="10"/>
<path d="M315.857 113.449C345.515 113.449 369.557 89.4065 369.557 59.7488C369.557 30.0911 345.515 6.04883 315.857 6.04883C286.2 6.04883 262.157 30.0911 262.157 59.7488C262.157 89.4065 286.2 113.449 315.857 113.449Z" stroke="#EE334E" stroke-width="10.2286" stroke-miterlimit="10"/>
<path d="M123.049 168.171C152.706 168.171 176.749 144.129 176.749 114.471C176.749 84.8138 152.706 60.7715 123.049 60.7715C93.3909 60.7715 69.3486 84.8138 69.3486 114.471C69.3486 144.129 93.3909 168.171 123.049 168.171Z" stroke="#FCB131" stroke-width="10.2286" stroke-miterlimit="10"/>
<path d="M251.929 168.171C281.586 168.171 305.629 144.129 305.629 114.471C305.629 84.8138 281.586 60.7715 251.929 60.7715C222.271 60.7715 198.229 84.8138 198.229 114.471C198.229 144.129 222.271 168.171 251.929 168.171Z" stroke="#00A651" stroke-width="10.2286" stroke-miterlimit="10"/>
<path d="M176.237 3.49085C159.36 -0.600583 136.857 4.00227 115.377 16.2766C81.6225 35.7108 63.7225 67.9308 75.4854 87.8766C83.1568 100.662 100.545 105.777 121.514 102.708C112.308 100.662 104.637 95.5479 100.545 88.3879C88.7825 67.9308 106.683 36.2222 140.437 16.7879C152.2 9.62794 164.985 5.02513 176.237 3.49085Z" fill="#EE334E"/>
<path d="M176.748 83.2742C181.862 99.6399 196.694 117.54 218.174 129.814C251.928 149.249 288.751 148.737 300.514 128.28C308.185 115.494 303.582 97.5942 290.285 81.2285C293.354 90.4342 292.842 99.1285 288.751 106.8C276.988 127.257 240.165 127.769 206.411 108.334C194.137 101.174 183.908 92.4799 176.748 83.2742Z" fill="#00A651"/>
<path d="M153.734 43.3821C141.971 56.1678 134.3 77.6477 134.3 102.708C134.3 141.576 153.223 173.285 176.748 173.285C191.58 173.285 204.877 160.499 212.548 141.065C205.9 148.225 198.228 152.316 189.534 152.316C166.008 152.316 147.086 120.608 147.086 81.7392C147.086 67.4192 149.643 54.6335 153.734 43.3821Z" fill="#0081C8"/>
</svg>
