<svg width="700" height="3000" viewBox="0 0 700 3000" fill="none" xmlns="http://www.w3.org/2000/svg">
<g clip-path="url(#clip0_2291_330)">
<path d="M0 0H700V3000H0V0Z" fill="#0C1D42"/>
<path d="M10 0H0V3000H10V0Z" fill="white" fill-opacity="0.3"/>
<path d="M125 0H115V3000H125V0Z" fill="white" fill-opacity="0.3"/>
<path d="M240 0H230V3000H240V0Z" fill="white" fill-opacity="0.3"/>
<path d="M355 0H345V3000H355V0Z" fill="white" fill-opacity="0.3"/>
<path d="M470 0H460V3000H470V0Z" fill="white" fill-opacity="0.3"/>
<path d="M585 0H575V3000H585V0Z" fill="white" fill-opacity="0.3"/>
<path d="M700 0H690V3000H700V0Z" fill="white" fill-opacity="0.3"/>
<path d="M700 1000H0V1010H700V1000Z" fill="white" fill-opacity="0.5"/>
<path d="M700 1020H0V1030H700V1020Z" fill="white" fill-opacity="0.5"/>
<path d="M700 5H0V15H700V5Z" fill="white" fill-opacity="0.5"/>
<path d="M700 2985H0V2995H700V2985Z" fill="white" fill-opacity="0.5"/>
<path d="M700 2000H0V2010H700V2000Z" fill="white" fill-opacity="0.5"/>
<path d="M700 2020H0V2030H700V2020Z" fill="white" fill-opacity="0.5"/>
<path fill-rule="evenodd" clip-rule="evenodd" d="M13.1591 287.048C13.5734 286.749 14.0788 286.503 14.6465 286.324C15.2142 286.146 15.8331 286.039 16.4678 286.009C17.1025 285.979 17.7405 286.026 18.3455 286.149C18.9504 286.272 19.5104 286.467 19.9933 286.724L62.058 309.05L104.123 286.724C105.103 286.236 106.352 286.004 107.604 286.076C108.856 286.148 110.014 286.519 110.833 287.11C111.651 287.701 112.067 288.467 111.991 289.244C111.916 290.021 111.355 290.75 110.427 291.276L65.2103 315.278C64.3323 315.744 63.2142 316 62.058 316C60.9018 316 59.7837 315.744 58.9057 315.278L13.6888 291.276C12.7146 290.758 12.1123 290.022 12.0142 289.229C11.9161 288.436 12.3302 287.652 13.1656 287.048" fill="#6D6D6D" fill-opacity="0.2"/>
<path fill-rule="evenodd" clip-rule="evenodd" d="M13.1591 302.048C13.5734 301.749 14.0788 301.503 14.6465 301.324C15.2142 301.146 15.8331 301.039 16.4678 301.009C17.1025 300.979 17.7405 301.026 18.3455 301.149C18.9504 301.272 19.5104 301.467 19.9933 301.724L62.058 324.05L104.123 301.724C105.103 301.236 106.352 301.004 107.604 301.076C108.856 301.148 110.014 301.519 110.833 302.11C111.651 302.701 112.067 303.467 111.991 304.244C111.916 305.021 111.355 305.75 110.427 306.276L65.2103 330.278C64.3323 330.744 63.2142 331 62.058 331C60.9018 331 59.7837 330.744 58.9057 330.278L13.6888 306.276C12.7146 305.758 12.1123 305.022 12.0142 304.229C11.9161 303.436 12.3302 302.652 13.1656 302.048" fill="white" fill-opacity="0.2"/>
<path fill-rule="evenodd" clip-rule="evenodd" d="M13.1591 317.048C13.5734 316.749 14.0788 316.503 14.6465 316.324C15.2142 316.146 15.8331 316.039 16.4678 316.009C17.1025 315.979 17.7405 316.026 18.3455 316.149C18.9504 316.272 19.5104 316.467 19.9933 316.724L62.058 339.05L104.123 316.724C105.103 316.236 106.352 316.004 107.604 316.076C108.856 316.148 110.014 316.519 110.833 317.11C111.651 317.701 112.067 318.467 111.991 319.244C111.916 320.021 111.355 320.75 110.427 321.276L65.2103 345.278C64.3323 345.744 63.2142 346 62.058 346C60.9018 346 59.7837 345.744 58.9057 345.278L13.6888 321.276C12.7146 320.758 12.1123 320.022 12.0142 319.229C11.9161 318.436 12.3302 317.652 13.1656 317.048" fill="white" fill-opacity="0.2"/>
<path fill-rule="evenodd" clip-rule="evenodd" d="M128.159 287.048C128.573 286.749 129.079 286.503 129.646 286.324C130.214 286.146 130.833 286.039 131.468 286.009C132.102 285.979 132.741 286.026 133.345 286.149C133.95 286.272 134.51 286.467 134.993 286.724L177.058 309.05L219.123 286.724C220.103 286.236 221.352 286.004 222.604 286.076C223.856 286.148 225.014 286.519 225.833 287.11C226.651 287.701 227.067 288.467 226.991 289.244C226.916 290.021 226.355 290.75 225.427 291.276L180.21 315.278C179.332 315.744 178.214 316 177.058 316C175.902 316 174.784 315.744 173.906 315.278L128.689 291.276C127.715 290.758 127.112 290.022 127.014 289.229C126.916 288.436 127.33 287.652 128.166 287.048" fill="#6D6D6D" fill-opacity="0.2"/>
<path fill-rule="evenodd" clip-rule="evenodd" d="M128.159 302.048C128.573 301.749 129.079 301.503 129.646 301.324C130.214 301.146 130.833 301.039 131.468 301.009C132.102 300.979 132.741 301.026 133.345 301.149C133.95 301.272 134.51 301.467 134.993 301.724L177.058 324.05L219.123 301.724C220.103 301.236 221.352 301.004 222.604 301.076C223.856 301.148 225.014 301.519 225.833 302.11C226.651 302.701 227.067 303.467 226.991 304.244C226.916 305.021 226.355 305.75 225.427 306.276L180.21 330.278C179.332 330.744 178.214 331 177.058 331C175.902 331 174.784 330.744 173.906 330.278L128.689 306.276C127.715 305.758 127.112 305.022 127.014 304.229C126.916 303.436 127.33 302.652 128.166 302.048" fill="white" fill-opacity="0.2"/>
<path fill-rule="evenodd" clip-rule="evenodd" d="M128.159 317.048C128.573 316.749 129.079 316.503 129.646 316.324C130.214 316.146 130.833 316.039 131.468 316.009C132.102 315.979 132.741 316.026 133.345 316.149C133.95 316.272 134.51 316.467 134.993 316.724L177.058 339.05L219.123 316.724C220.103 316.236 221.352 316.004 222.604 316.076C223.856 316.148 225.014 316.519 225.833 317.11C226.651 317.701 227.067 318.467 226.991 319.244C226.916 320.021 226.355 320.75 225.427 321.276L180.21 345.278C179.332 345.744 178.214 346 177.058 346C175.902 346 174.784 345.744 173.906 345.278L128.689 321.276C127.715 320.758 127.112 320.022 127.014 319.229C126.916 318.436 127.33 317.652 128.166 317.048" fill="white" fill-opacity="0.2"/>
<path fill-rule="evenodd" clip-rule="evenodd" d="M243.159 287.048C243.573 286.749 244.079 286.503 244.646 286.324C245.214 286.146 245.833 286.039 246.468 286.009C247.102 285.979 247.741 286.026 248.345 286.149C248.95 286.272 249.51 286.467 249.993 286.724L292.058 309.05L334.123 286.724C335.103 286.236 336.352 286.004 337.604 286.076C338.856 286.148 340.014 286.519 340.833 287.11C341.651 287.701 342.067 288.467 341.991 289.244C341.916 290.021 341.355 290.75 340.427 291.276L295.21 315.278C294.332 315.744 293.214 316 292.058 316C290.902 316 289.784 315.744 288.906 315.278L243.689 291.276C242.715 290.758 242.112 290.022 242.014 289.229C241.916 288.436 242.33 287.652 243.166 287.048" fill="#6D6D6D" fill-opacity="0.2"/>
<path fill-rule="evenodd" clip-rule="evenodd" d="M243.159 302.048C243.573 301.749 244.079 301.503 244.646 301.324C245.214 301.146 245.833 301.039 246.468 301.009C247.102 300.979 247.741 301.026 248.345 301.149C248.95 301.272 249.51 301.467 249.993 301.724L292.058 324.05L334.123 301.724C335.103 301.236 336.352 301.004 337.604 301.076C338.856 301.148 340.014 301.519 340.833 302.11C341.651 302.701 342.067 303.467 341.991 304.244C341.916 305.021 341.355 305.75 340.427 306.276L295.21 330.278C294.332 330.744 293.214 331 292.058 331C290.902 331 289.784 330.744 288.906 330.278L243.689 306.276C242.715 305.758 242.112 305.022 242.014 304.229C241.916 303.436 242.33 302.652 243.166 302.048" fill="white" fill-opacity="0.2"/>
<path fill-rule="evenodd" clip-rule="evenodd" d="M243.159 317.048C243.573 316.749 244.079 316.503 244.646 316.324C245.214 316.146 245.833 316.039 246.468 316.009C247.102 315.979 247.741 316.026 248.345 316.149C248.95 316.272 249.51 316.467 249.993 316.724L292.058 339.05L334.123 316.724C335.103 316.236 336.352 316.004 337.604 316.076C338.856 316.148 340.014 316.519 340.833 317.11C341.651 317.701 342.067 318.467 341.991 319.244C341.916 320.021 341.355 320.75 340.427 321.276L295.21 345.278C294.332 345.744 293.214 346 292.058 346C290.902 346 289.784 345.744 288.906 345.278L243.689 321.276C242.715 320.758 242.112 320.022 242.014 319.229C241.916 318.436 242.33 317.652 243.166 317.048" fill="white" fill-opacity="0.2"/>
<path fill-rule="evenodd" clip-rule="evenodd" d="M358.159 287.048C358.573 286.749 359.079 286.503 359.646 286.324C360.214 286.146 360.833 286.039 361.468 286.009C362.102 285.979 362.741 286.026 363.345 286.149C363.95 286.272 364.51 286.467 364.993 286.724L407.058 309.05L449.123 286.724C450.103 286.236 451.352 286.004 452.604 286.076C453.856 286.148 455.014 286.519 455.833 287.11C456.651 287.701 457.067 288.467 456.991 289.244C456.916 290.021 456.355 290.75 455.427 291.276L410.21 315.278C409.332 315.744 408.214 316 407.058 316C405.902 316 404.784 315.744 403.906 315.278L358.689 291.276C357.715 290.758 357.112 290.022 357.014 289.229C356.916 288.436 357.33 287.652 358.166 287.048" fill="#6D6D6D" fill-opacity="0.2"/>
<path fill-rule="evenodd" clip-rule="evenodd" d="M358.159 302.048C358.573 301.749 359.079 301.503 359.646 301.324C360.214 301.146 360.833 301.039 361.468 301.009C362.102 300.979 362.741 301.026 363.345 301.149C363.95 301.272 364.51 301.467 364.993 301.724L407.058 324.05L449.123 301.724C450.103 301.236 451.352 301.004 452.604 301.076C453.856 301.148 455.014 301.519 455.833 302.11C456.651 302.701 457.067 303.467 456.991 304.244C456.916 305.021 456.355 305.75 455.427 306.276L410.21 330.278C409.332 330.744 408.214 331 407.058 331C405.902 331 404.784 330.744 403.906 330.278L358.689 306.276C357.715 305.758 357.112 305.022 357.014 304.229C356.916 303.436 357.33 302.652 358.166 302.048" fill="white" fill-opacity="0.2"/>
<path fill-rule="evenodd" clip-rule="evenodd" d="M358.159 317.048C358.573 316.749 359.079 316.503 359.646 316.324C360.214 316.146 360.833 316.039 361.468 316.009C362.102 315.979 362.741 316.026 363.345 316.149C363.95 316.272 364.51 316.467 364.993 316.724L407.058 339.05L449.123 316.724C450.103 316.236 451.352 316.004 452.604 316.076C453.856 316.148 455.014 316.519 455.833 317.11C456.651 317.701 457.067 318.467 456.991 319.244C456.916 320.021 456.355 320.75 455.427 321.276L410.21 345.278C409.332 345.744 408.214 346 407.058 346C405.902 346 404.784 345.744 403.906 345.278L358.689 321.276C357.715 320.758 357.112 320.022 357.014 319.229C356.916 318.436 357.33 317.652 358.166 317.048" fill="white" fill-opacity="0.2"/>
<path fill-rule="evenodd" clip-rule="evenodd" d="M473.159 287.048C473.573 286.749 474.079 286.503 474.646 286.324C475.214 286.146 475.833 286.039 476.468 286.009C477.102 285.979 477.741 286.026 478.345 286.149C478.95 286.272 479.51 286.467 479.993 286.724L522.058 309.05L564.123 286.724C565.103 286.236 566.352 286.004 567.604 286.076C568.856 286.148 570.014 286.519 570.833 287.11C571.651 287.701 572.067 288.467 571.991 289.244C571.916 290.021 571.355 290.75 570.427 291.276L525.21 315.278C524.332 315.744 523.214 316 522.058 316C520.902 316 519.784 315.744 518.906 315.278L473.689 291.276C472.715 290.758 472.112 290.022 472.014 289.229C471.916 288.436 472.33 287.652 473.166 287.048" fill="#6D6D6D" fill-opacity="0.2"/>
<path fill-rule="evenodd" clip-rule="evenodd" d="M473.159 302.048C473.573 301.749 474.079 301.503 474.646 301.324C475.214 301.146 475.833 301.039 476.468 301.009C477.102 300.979 477.741 301.026 478.345 301.149C478.95 301.272 479.51 301.467 479.993 301.724L522.058 324.05L564.123 301.724C565.103 301.236 566.352 301.004 567.604 301.076C568.856 301.148 570.014 301.519 570.833 302.11C571.651 302.701 572.067 303.467 571.991 304.244C571.916 305.021 571.355 305.75 570.427 306.276L525.21 330.278C524.332 330.744 523.214 331 522.058 331C520.902 331 519.784 330.744 518.906 330.278L473.689 306.276C472.715 305.758 472.112 305.022 472.014 304.229C471.916 303.436 472.33 302.652 473.166 302.048" fill="white" fill-opacity="0.2"/>
<path fill-rule="evenodd" clip-rule="evenodd" d="M473.159 317.048C473.573 316.749 474.079 316.503 474.646 316.324C475.214 316.146 475.833 316.039 476.468 316.009C477.102 315.979 477.741 316.026 478.345 316.149C478.95 316.272 479.51 316.467 479.993 316.724L522.058 339.05L564.123 316.724C565.103 316.236 566.352 316.004 567.604 316.076C568.856 316.148 570.014 316.519 570.833 317.11C571.651 317.701 572.067 318.467 571.991 319.244C571.916 320.021 571.355 320.75 570.427 321.276L525.21 345.278C524.332 345.744 523.214 346 522.058 346C520.902 346 519.784 345.744 518.906 345.278L473.689 321.276C472.715 320.758 472.112 320.022 472.014 319.229C471.916 318.436 472.33 317.652 473.166 317.048" fill="white" fill-opacity="0.2"/>
<path fill-rule="evenodd" clip-rule="evenodd" d="M588.159 287.048C588.573 286.749 589.079 286.503 589.646 286.324C590.214 286.146 590.833 286.039 591.468 286.009C592.102 285.979 592.741 286.026 593.345 286.149C593.95 286.272 594.51 286.467 594.993 286.724L637.058 309.05L679.123 286.724C680.103 286.236 681.352 286.004 682.604 286.076C683.856 286.148 685.014 286.519 685.833 287.11C686.651 287.701 687.067 288.467 686.991 289.244C686.916 290.021 686.355 290.75 685.427 291.276L640.21 315.278C639.332 315.744 638.214 316 637.058 316C635.902 316 634.784 315.744 633.906 315.278L588.689 291.276C587.715 290.758 587.112 290.022 587.014 289.229C586.916 288.436 587.33 287.652 588.166 287.048" fill="#6D6D6D" fill-opacity="0.2"/>
<path fill-rule="evenodd" clip-rule="evenodd" d="M588.159 302.048C588.573 301.749 589.079 301.503 589.646 301.324C590.214 301.146 590.833 301.039 591.468 301.009C592.102 300.979 592.741 301.026 593.345 301.149C593.95 301.272 594.51 301.467 594.993 301.724L637.058 324.05L679.123 301.724C680.103 301.236 681.352 301.004 682.604 301.076C683.856 301.148 685.014 301.519 685.833 302.11C686.651 302.701 687.067 303.467 686.991 304.244C686.916 305.021 686.355 305.75 685.427 306.276L640.21 330.278C639.332 330.744 638.214 331 637.058 331C635.902 331 634.784 330.744 633.906 330.278L588.689 306.276C587.715 305.758 587.112 305.022 587.014 304.229C586.916 303.436 587.33 302.652 588.166 302.048" fill="white" fill-opacity="0.2"/>
<path fill-rule="evenodd" clip-rule="evenodd" d="M588.159 317.048C588.573 316.749 589.079 316.503 589.646 316.324C590.214 316.146 590.833 316.039 591.468 316.009C592.102 315.979 592.741 316.026 593.345 316.149C593.95 316.272 594.51 316.467 594.993 316.724L637.058 339.05L679.123 316.724C680.103 316.236 681.352 316.004 682.604 316.076C683.856 316.148 685.014 316.519 685.833 317.11C686.651 317.701 687.067 318.467 686.991 319.244C686.916 320.021 686.355 320.75 685.427 321.276L640.21 345.278C639.332 345.744 638.214 346 637.058 346C635.902 346 634.784 345.744 633.906 345.278L588.689 321.276C587.715 320.758 587.112 320.022 587.014 319.229C586.916 318.436 587.33 317.652 588.166 317.048" fill="white" fill-opacity="0.2"/>
<path fill-rule="evenodd" clip-rule="evenodd" d="M13.1591 637.048C13.5734 636.749 14.0788 636.503 14.6465 636.324C15.2142 636.146 15.8331 636.039 16.4678 636.009C17.1025 635.979 17.7405 636.026 18.3455 636.149C18.9504 636.272 19.5104 636.467 19.9933 636.724L62.058 659.05L104.123 636.724C105.103 636.236 106.352 636.004 107.604 636.076C108.856 636.148 110.014 636.519 110.833 637.11C111.651 637.701 112.067 638.467 111.991 639.244C111.916 640.021 111.355 640.75 110.427 641.276L65.2103 665.278C64.3323 665.744 63.2142 666 62.058 666C60.9018 666 59.7837 665.744 58.9057 665.278L13.6888 641.276C12.7146 640.758 12.1123 640.022 12.0142 639.229C11.9161 638.436 12.3302 637.652 13.1656 637.048" fill="#6D6D6D" fill-opacity="0.2"/>
<path fill-rule="evenodd" clip-rule="evenodd" d="M13.1591 652.048C13.5734 651.749 14.0788 651.503 14.6465 651.324C15.2142 651.146 15.8331 651.039 16.4678 651.009C17.1025 650.979 17.7405 651.026 18.3455 651.149C18.9504 651.272 19.5104 651.467 19.9933 651.724L62.058 674.05L104.123 651.724C105.103 651.236 106.352 651.004 107.604 651.076C108.856 651.148 110.014 651.519 110.833 652.11C111.651 652.701 112.067 653.467 111.991 654.244C111.916 655.021 111.355 655.75 110.427 656.276L65.2103 680.278C64.3323 680.744 63.2142 681 62.058 681C60.9018 681 59.7837 680.744 58.9057 680.278L13.6888 656.276C12.7146 655.758 12.1123 655.022 12.0142 654.229C11.9161 653.436 12.3302 652.652 13.1656 652.048" fill="white" fill-opacity="0.2"/>
<path fill-rule="evenodd" clip-rule="evenodd" d="M13.1591 667.048C13.5734 666.749 14.0788 666.503 14.6465 666.324C15.2142 666.146 15.8331 666.039 16.4678 666.009C17.1025 665.979 17.7405 666.026 18.3455 666.149C18.9504 666.272 19.5104 666.467 19.9933 666.724L62.058 689.05L104.123 666.724C105.103 666.236 106.352 666.004 107.604 666.076C108.856 666.148 110.014 666.519 110.833 667.11C111.651 667.701 112.067 668.467 111.991 669.244C111.916 670.021 111.355 670.75 110.427 671.276L65.2103 695.278C64.3323 695.744 63.2142 696 62.058 696C60.9018 696 59.7837 695.744 58.9057 695.278L13.6888 671.276C12.7146 670.758 12.1123 670.022 12.0142 669.229C11.9161 668.436 12.3302 667.652 13.1656 667.048" fill="white" fill-opacity="0.2"/>
<path fill-rule="evenodd" clip-rule="evenodd" d="M128.159 637.048C128.573 636.749 129.079 636.503 129.646 636.324C130.214 636.146 130.833 636.039 131.468 636.009C132.102 635.979 132.741 636.026 133.345 636.149C133.95 636.272 134.51 636.467 134.993 636.724L177.058 659.05L219.123 636.724C220.103 636.236 221.352 636.004 222.604 636.076C223.856 636.148 225.014 636.519 225.833 637.11C226.651 637.701 227.067 638.467 226.991 639.244C226.916 640.021 226.355 640.75 225.427 641.276L180.21 665.278C179.332 665.744 178.214 666 177.058 666C175.902 666 174.784 665.744 173.906 665.278L128.689 641.276C127.715 640.758 127.112 640.022 127.014 639.229C126.916 638.436 127.33 637.652 128.166 637.048" fill="#6D6D6D" fill-opacity="0.2"/>
<path fill-rule="evenodd" clip-rule="evenodd" d="M128.159 652.048C128.573 651.749 129.079 651.503 129.646 651.324C130.214 651.146 130.833 651.039 131.468 651.009C132.102 650.979 132.741 651.026 133.345 651.149C133.95 651.272 134.51 651.467 134.993 651.724L177.058 674.05L219.123 651.724C220.103 651.236 221.352 651.004 222.604 651.076C223.856 651.148 225.014 651.519 225.833 652.11C226.651 652.701 227.067 653.467 226.991 654.244C226.916 655.021 226.355 655.75 225.427 656.276L180.21 680.278C179.332 680.744 178.214 681 177.058 681C175.902 681 174.784 680.744 173.906 680.278L128.689 656.276C127.715 655.758 127.112 655.022 127.014 654.229C126.916 653.436 127.33 652.652 128.166 652.048" fill="white" fill-opacity="0.2"/>
<path fill-rule="evenodd" clip-rule="evenodd" d="M128.159 667.048C128.573 666.749 129.079 666.503 129.646 666.324C130.214 666.146 130.833 666.039 131.468 666.009C132.102 665.979 132.741 666.026 133.345 666.149C133.95 666.272 134.51 666.467 134.993 666.724L177.058 689.05L219.123 666.724C220.103 666.236 221.352 666.004 222.604 666.076C223.856 666.148 225.014 666.519 225.833 667.11C226.651 667.701 227.067 668.467 226.991 669.244C226.916 670.021 226.355 670.75 225.427 671.276L180.21 695.278C179.332 695.744 178.214 696 177.058 696C175.902 696 174.784 695.744 173.906 695.278L128.689 671.276C127.715 670.758 127.112 670.022 127.014 669.229C126.916 668.436 127.33 667.652 128.166 667.048" fill="white" fill-opacity="0.2"/>
<path fill-rule="evenodd" clip-rule="evenodd" d="M243.159 637.048C243.573 636.749 244.079 636.503 244.646 636.324C245.214 636.146 245.833 636.039 246.468 636.009C247.102 635.979 247.741 636.026 248.345 636.149C248.95 636.272 249.51 636.467 249.993 636.724L292.058 659.05L334.123 636.724C335.103 636.236 336.352 636.004 337.604 636.076C338.856 636.148 340.014 636.519 340.833 637.11C341.651 637.701 342.067 638.467 341.991 639.244C341.916 640.021 341.355 640.75 340.427 641.276L295.21 665.278C294.332 665.744 293.214 666 292.058 666C290.902 666 289.784 665.744 288.906 665.278L243.689 641.276C242.715 640.758 242.112 640.022 242.014 639.229C241.916 638.436 242.33 637.652 243.166 637.048" fill="#6D6D6D" fill-opacity="0.2"/>
<path fill-rule="evenodd" clip-rule="evenodd" d="M243.159 652.048C243.573 651.749 244.079 651.503 244.646 651.324C245.214 651.146 245.833 651.039 246.468 651.009C247.102 650.979 247.741 651.026 248.345 651.149C248.95 651.272 249.51 651.467 249.993 651.724L292.058 674.05L334.123 651.724C335.103 651.236 336.352 651.004 337.604 651.076C338.856 651.148 340.014 651.519 340.833 652.11C341.651 652.701 342.067 653.467 341.991 654.244C341.916 655.021 341.355 655.75 340.427 656.276L295.21 680.278C294.332 680.744 293.214 681 292.058 681C290.902 681 289.784 680.744 288.906 680.278L243.689 656.276C242.715 655.758 242.112 655.022 242.014 654.229C241.916 653.436 242.33 652.652 243.166 652.048" fill="white" fill-opacity="0.2"/>
<path fill-rule="evenodd" clip-rule="evenodd" d="M243.159 667.048C243.573 666.749 244.079 666.503 244.646 666.324C245.214 666.146 245.833 666.039 246.468 666.009C247.102 665.979 247.741 666.026 248.345 666.149C248.95 666.272 249.51 666.467 249.993 666.724L292.058 689.05L334.123 666.724C335.103 666.236 336.352 666.004 337.604 666.076C338.856 666.148 340.014 666.519 340.833 667.11C341.651 667.701 342.067 668.467 341.991 669.244C341.916 670.021 341.355 670.75 340.427 671.276L295.21 695.278C294.332 695.744 293.214 696 292.058 696C290.902 696 289.784 695.744 288.906 695.278L243.689 671.276C242.715 670.758 242.112 670.022 242.014 669.229C241.916 668.436 242.33 667.652 243.166 667.048" fill="white" fill-opacity="0.2"/>
<path fill-rule="evenodd" clip-rule="evenodd" d="M358.159 637.048C358.573 636.749 359.079 636.503 359.646 636.324C360.214 636.146 360.833 636.039 361.468 636.009C362.102 635.979 362.741 636.026 363.345 636.149C363.95 636.272 364.51 636.467 364.993 636.724L407.058 659.05L449.123 636.724C450.103 636.236 451.352 636.004 452.604 636.076C453.856 636.148 455.014 636.519 455.833 637.11C456.651 637.701 457.067 638.467 456.991 639.244C456.916 640.021 456.355 640.75 455.427 641.276L410.21 665.278C409.332 665.744 408.214 666 407.058 666C405.902 666 404.784 665.744 403.906 665.278L358.689 641.276C357.715 640.758 357.112 640.022 357.014 639.229C356.916 638.436 357.33 637.652 358.166 637.048" fill="#6D6D6D" fill-opacity="0.2"/>
<path fill-rule="evenodd" clip-rule="evenodd" d="M358.159 652.048C358.573 651.749 359.079 651.503 359.646 651.324C360.214 651.146 360.833 651.039 361.468 651.009C362.102 650.979 362.741 651.026 363.345 651.149C363.95 651.272 364.51 651.467 364.993 651.724L407.058 674.05L449.123 651.724C450.103 651.236 451.352 651.004 452.604 651.076C453.856 651.148 455.014 651.519 455.833 652.11C456.651 652.701 457.067 653.467 456.991 654.244C456.916 655.021 456.355 655.75 455.427 656.276L410.21 680.278C409.332 680.744 408.214 681 407.058 681C405.902 681 404.784 680.744 403.906 680.278L358.689 656.276C357.715 655.758 357.112 655.022 357.014 654.229C356.916 653.436 357.33 652.652 358.166 652.048" fill="white" fill-opacity="0.2"/>
<path fill-rule="evenodd" clip-rule="evenodd" d="M358.159 667.048C358.573 666.749 359.079 666.503 359.646 666.324C360.214 666.146 360.833 666.039 361.468 666.009C362.102 665.979 362.741 666.026 363.345 666.149C363.95 666.272 364.51 666.467 364.993 666.724L407.058 689.05L449.123 666.724C450.103 666.236 451.352 666.004 452.604 666.076C453.856 666.148 455.014 666.519 455.833 667.11C456.651 667.701 457.067 668.467 456.991 669.244C456.916 670.021 456.355 670.75 455.427 671.276L410.21 695.278C409.332 695.744 408.214 696 407.058 696C405.902 696 404.784 695.744 403.906 695.278L358.689 671.276C357.715 670.758 357.112 670.022 357.014 669.229C356.916 668.436 357.33 667.652 358.166 667.048" fill="white" fill-opacity="0.2"/>
<path fill-rule="evenodd" clip-rule="evenodd" d="M473.159 637.048C473.573 636.749 474.079 636.503 474.646 636.324C475.214 636.146 475.833 636.039 476.468 636.009C477.102 635.979 477.741 636.026 478.345 636.149C478.95 636.272 479.51 636.467 479.993 636.724L522.058 659.05L564.123 636.724C565.103 636.236 566.352 636.004 567.604 636.076C568.856 636.148 570.014 636.519 570.833 637.11C571.651 637.701 572.067 638.467 571.991 639.244C571.916 640.021 571.355 640.75 570.427 641.276L525.21 665.278C524.332 665.744 523.214 666 522.058 666C520.902 666 519.784 665.744 518.906 665.278L473.689 641.276C472.715 640.758 472.112 640.022 472.014 639.229C471.916 638.436 472.33 637.652 473.166 637.048" fill="#6D6D6D" fill-opacity="0.2"/>
<path fill-rule="evenodd" clip-rule="evenodd" d="M473.159 652.048C473.573 651.749 474.079 651.503 474.646 651.324C475.214 651.146 475.833 651.039 476.468 651.009C477.102 650.979 477.741 651.026 478.345 651.149C478.95 651.272 479.51 651.467 479.993 651.724L522.058 674.05L564.123 651.724C565.103 651.236 566.352 651.004 567.604 651.076C568.856 651.148 570.014 651.519 570.833 652.11C571.651 652.701 572.067 653.467 571.991 654.244C571.916 655.021 571.355 655.75 570.427 656.276L525.21 680.278C524.332 680.744 523.214 681 522.058 681C520.902 681 519.784 680.744 518.906 680.278L473.689 656.276C472.715 655.758 472.112 655.022 472.014 654.229C471.916 653.436 472.33 652.652 473.166 652.048" fill="white" fill-opacity="0.2"/>
<path fill-rule="evenodd" clip-rule="evenodd" d="M473.159 667.048C473.573 666.749 474.079 666.503 474.646 666.324C475.214 666.146 475.833 666.039 476.468 666.009C477.102 665.979 477.741 666.026 478.345 666.149C478.95 666.272 479.51 666.467 479.993 666.724L522.058 689.05L564.123 666.724C565.103 666.236 566.352 666.004 567.604 666.076C568.856 666.148 570.014 666.519 570.833 667.11C571.651 667.701 572.067 668.467 571.991 669.244C571.916 670.021 571.355 670.75 570.427 671.276L525.21 695.278C524.332 695.744 523.214 696 522.058 696C520.902 696 519.784 695.744 518.906 695.278L473.689 671.276C472.715 670.758 472.112 670.022 472.014 669.229C471.916 668.436 472.33 667.652 473.166 667.048" fill="white" fill-opacity="0.2"/>
<path fill-rule="evenodd" clip-rule="evenodd" d="M588.159 637.048C588.573 636.749 589.079 636.503 589.646 636.324C590.214 636.146 590.833 636.039 591.468 636.009C592.102 635.979 592.741 636.026 593.345 636.149C593.95 636.272 594.51 636.467 594.993 636.724L637.058 659.05L679.123 636.724C680.103 636.236 681.352 636.004 682.604 636.076C683.856 636.148 685.014 636.519 685.833 637.11C686.651 637.701 687.067 638.467 686.991 639.244C686.916 640.021 686.355 640.75 685.427 641.276L640.21 665.278C639.332 665.744 638.214 666 637.058 666C635.902 666 634.784 665.744 633.906 665.278L588.689 641.276C587.715 640.758 587.112 640.022 587.014 639.229C586.916 638.436 587.33 637.652 588.166 637.048" fill="#6D6D6D" fill-opacity="0.2"/>
<path fill-rule="evenodd" clip-rule="evenodd" d="M588.159 652.048C588.573 651.749 589.079 651.503 589.646 651.324C590.214 651.146 590.833 651.039 591.468 651.009C592.102 650.979 592.741 651.026 593.345 651.149C593.95 651.272 594.51 651.467 594.993 651.724L637.058 674.05L679.123 651.724C680.103 651.236 681.352 651.004 682.604 651.076C683.856 651.148 685.014 651.519 685.833 652.11C686.651 652.701 687.067 653.467 686.991 654.244C686.916 655.021 686.355 655.75 685.427 656.276L640.21 680.278C639.332 680.744 638.214 681 637.058 681C635.902 681 634.784 680.744 633.906 680.278L588.689 656.276C587.715 655.758 587.112 655.022 587.014 654.229C586.916 653.436 587.33 652.652 588.166 652.048" fill="white" fill-opacity="0.2"/>
<path fill-rule="evenodd" clip-rule="evenodd" d="M588.159 667.048C588.573 666.749 589.079 666.503 589.646 666.324C590.214 666.146 590.833 666.039 591.468 666.009C592.102 665.979 592.741 666.026 593.345 666.149C593.95 666.272 594.51 666.467 594.993 666.724L637.058 689.05L679.123 666.724C680.103 666.236 681.352 666.004 682.604 666.076C683.856 666.148 685.014 666.519 685.833 667.11C686.651 667.701 687.067 668.467 686.991 669.244C686.916 670.021 686.355 670.75 685.427 671.276L640.21 695.278C639.332 695.744 638.214 696 637.058 696C635.902 696 634.784 695.744 633.906 695.278L588.689 671.276C587.715 670.758 587.112 670.022 587.014 669.229C586.916 668.436 587.33 667.652 588.166 667.048" fill="white" fill-opacity="0.2"/>
<path fill-rule="evenodd" clip-rule="evenodd" d="M13.1591 1297.05C13.5734 1296.75 14.0788 1296.5 14.6465 1296.32C15.2142 1296.15 15.8331 1296.04 16.4678 1296.01C17.1025 1295.98 17.7405 1296.03 18.3455 1296.15C18.9504 1296.27 19.5104 1296.47 19.9933 1296.72L62.058 1319.05L104.123 1296.72C105.103 1296.24 106.352 1296 107.604 1296.08C108.856 1296.15 110.014 1296.52 110.833 1297.11C111.651 1297.7 112.067 1298.47 111.991 1299.24C111.916 1300.02 111.355 1300.75 110.427 1301.28L65.2103 1325.28C64.3323 1325.74 63.2142 1326 62.058 1326C60.9018 1326 59.7837 1325.74 58.9057 1325.28L13.6888 1301.28C12.7146 1300.76 12.1123 1300.02 12.0142 1299.23C11.9161 1298.44 12.3302 1297.65 13.1656 1297.05" fill="#6D6D6D" fill-opacity="0.2"/>
<path fill-rule="evenodd" clip-rule="evenodd" d="M13.1591 1312.05C13.5734 1311.75 14.0788 1311.5 14.6465 1311.32C15.2142 1311.15 15.8331 1311.04 16.4678 1311.01C17.1025 1310.98 17.7405 1311.03 18.3455 1311.15C18.9504 1311.27 19.5104 1311.47 19.9933 1311.72L62.058 1334.05L104.123 1311.72C105.103 1311.24 106.352 1311 107.604 1311.08C108.856 1311.15 110.014 1311.52 110.833 1312.11C111.651 1312.7 112.067 1313.47 111.991 1314.24C111.916 1315.02 111.355 1315.75 110.427 1316.28L65.2103 1340.28C64.3323 1340.74 63.2142 1341 62.058 1341C60.9018 1341 59.7837 1340.74 58.9057 1340.28L13.6888 1316.28C12.7146 1315.76 12.1123 1315.02 12.0142 1314.23C11.9161 1313.44 12.3302 1312.65 13.1656 1312.05" fill="white" fill-opacity="0.2"/>
<path fill-rule="evenodd" clip-rule="evenodd" d="M13.1591 1327.05C13.5734 1326.75 14.0788 1326.5 14.6465 1326.32C15.2142 1326.15 15.8331 1326.04 16.4678 1326.01C17.1025 1325.98 17.7405 1326.03 18.3455 1326.15C18.9504 1326.27 19.5104 1326.47 19.9933 1326.72L62.058 1349.05L104.123 1326.72C105.103 1326.24 106.352 1326 107.604 1326.08C108.856 1326.15 110.014 1326.52 110.833 1327.11C111.651 1327.7 112.067 1328.47 111.991 1329.24C111.916 1330.02 111.355 1330.75 110.427 1331.28L65.2103 1355.28C64.3323 1355.74 63.2142 1356 62.058 1356C60.9018 1356 59.7837 1355.74 58.9057 1355.28L13.6888 1331.28C12.7146 1330.76 12.1123 1330.02 12.0142 1329.23C11.9161 1328.44 12.3302 1327.65 13.1656 1327.05" fill="white" fill-opacity="0.2"/>
<path fill-rule="evenodd" clip-rule="evenodd" d="M128.159 1297.05C128.573 1296.75 129.079 1296.5 129.646 1296.32C130.214 1296.15 130.833 1296.04 131.468 1296.01C132.102 1295.98 132.741 1296.03 133.345 1296.15C133.95 1296.27 134.51 1296.47 134.993 1296.72L177.058 1319.05L219.123 1296.72C220.103 1296.24 221.352 1296 222.604 1296.08C223.856 1296.15 225.014 1296.52 225.833 1297.11C226.651 1297.7 227.067 1298.47 226.991 1299.24C226.916 1300.02 226.355 1300.75 225.427 1301.28L180.21 1325.28C179.332 1325.74 178.214 1326 177.058 1326C175.902 1326 174.784 1325.74 173.906 1325.28L128.689 1301.28C127.715 1300.76 127.112 1300.02 127.014 1299.23C126.916 1298.44 127.33 1297.65 128.166 1297.05" fill="#6D6D6D" fill-opacity="0.2"/>
<path fill-rule="evenodd" clip-rule="evenodd" d="M128.159 1312.05C128.573 1311.75 129.079 1311.5 129.646 1311.32C130.214 1311.15 130.833 1311.04 131.468 1311.01C132.102 1310.98 132.741 1311.03 133.345 1311.15C133.95 1311.27 134.51 1311.47 134.993 1311.72L177.058 1334.05L219.123 1311.72C220.103 1311.24 221.352 1311 222.604 1311.08C223.856 1311.15 225.014 1311.52 225.833 1312.11C226.651 1312.7 227.067 1313.47 226.991 1314.24C226.916 1315.02 226.355 1315.75 225.427 1316.28L180.21 1340.28C179.332 1340.74 178.214 1341 177.058 1341C175.902 1341 174.784 1340.74 173.906 1340.28L128.689 1316.28C127.715 1315.76 127.112 1315.02 127.014 1314.23C126.916 1313.44 127.33 1312.65 128.166 1312.05" fill="white" fill-opacity="0.2"/>
<path fill-rule="evenodd" clip-rule="evenodd" d="M128.159 1327.05C128.573 1326.75 129.079 1326.5 129.646 1326.32C130.214 1326.15 130.833 1326.04 131.468 1326.01C132.102 1325.98 132.741 1326.03 133.345 1326.15C133.95 1326.27 134.51 1326.47 134.993 1326.72L177.058 1349.05L219.123 1326.72C220.103 1326.24 221.352 1326 222.604 1326.08C223.856 1326.15 225.014 1326.52 225.833 1327.11C226.651 1327.7 227.067 1328.47 226.991 1329.24C226.916 1330.02 226.355 1330.75 225.427 1331.28L180.21 1355.28C179.332 1355.74 178.214 1356 177.058 1356C175.902 1356 174.784 1355.74 173.906 1355.28L128.689 1331.28C127.715 1330.76 127.112 1330.02 127.014 1329.23C126.916 1328.44 127.33 1327.65 128.166 1327.05" fill="white" fill-opacity="0.2"/>
<path fill-rule="evenodd" clip-rule="evenodd" d="M243.159 1297.05C243.573 1296.75 244.079 1296.5 244.646 1296.32C245.214 1296.15 245.833 1296.04 246.468 1296.01C247.102 1295.98 247.741 1296.03 248.345 1296.15C248.95 1296.27 249.51 1296.47 249.993 1296.72L292.058 1319.05L334.123 1296.72C335.103 1296.24 336.352 1296 337.604 1296.08C338.856 1296.15 340.014 1296.52 340.833 1297.11C341.651 1297.7 342.067 1298.47 341.991 1299.24C341.916 1300.02 341.355 1300.75 340.427 1301.28L295.21 1325.28C294.332 1325.74 293.214 1326 292.058 1326C290.902 1326 289.784 1325.74 288.906 1325.28L243.689 1301.28C242.715 1300.76 242.112 1300.02 242.014 1299.23C241.916 1298.44 242.33 1297.65 243.166 1297.05" fill="#6D6D6D" fill-opacity="0.2"/>
<path fill-rule="evenodd" clip-rule="evenodd" d="M243.159 1312.05C243.573 1311.75 244.079 1311.5 244.646 1311.32C245.214 1311.15 245.833 1311.04 246.468 1311.01C247.102 1310.98 247.741 1311.03 248.345 1311.15C248.95 1311.27 249.51 1311.47 249.993 1311.72L292.058 1334.05L334.123 1311.72C335.103 1311.24 336.352 1311 337.604 1311.08C338.856 1311.15 340.014 1311.52 340.833 1312.11C341.651 1312.7 342.067 1313.47 341.991 1314.24C341.916 1315.02 341.355 1315.75 340.427 1316.28L295.21 1340.28C294.332 1340.74 293.214 1341 292.058 1341C290.902 1341 289.784 1340.74 288.906 1340.28L243.689 1316.28C242.715 1315.76 242.112 1315.02 242.014 1314.23C241.916 1313.44 242.33 1312.65 243.166 1312.05" fill="white" fill-opacity="0.2"/>
<path fill-rule="evenodd" clip-rule="evenodd" d="M243.159 1327.05C243.573 1326.75 244.079 1326.5 244.646 1326.32C245.214 1326.15 245.833 1326.04 246.468 1326.01C247.102 1325.98 247.741 1326.03 248.345 1326.15C248.95 1326.27 249.51 1326.47 249.993 1326.72L292.058 1349.05L334.123 1326.72C335.103 1326.24 336.352 1326 337.604 1326.08C338.856 1326.15 340.014 1326.52 340.833 1327.11C341.651 1327.7 342.067 1328.47 341.991 1329.24C341.916 1330.02 341.355 1330.75 340.427 1331.28L295.21 1355.28C294.332 1355.74 293.214 1356 292.058 1356C290.902 1356 289.784 1355.74 288.906 1355.28L243.689 1331.28C242.715 1330.76 242.112 1330.02 242.014 1329.23C241.916 1328.44 242.33 1327.65 243.166 1327.05" fill="white" fill-opacity="0.2"/>
<path fill-rule="evenodd" clip-rule="evenodd" d="M358.159 1297.05C358.573 1296.75 359.079 1296.5 359.646 1296.32C360.214 1296.15 360.833 1296.04 361.468 1296.01C362.102 1295.98 362.741 1296.03 363.345 1296.15C363.95 1296.27 364.51 1296.47 364.993 1296.72L407.058 1319.05L449.123 1296.72C450.103 1296.24 451.352 1296 452.604 1296.08C453.856 1296.15 455.014 1296.52 455.833 1297.11C456.651 1297.7 457.067 1298.47 456.991 1299.24C456.916 1300.02 456.355 1300.75 455.427 1301.28L410.21 1325.28C409.332 1325.74 408.214 1326 407.058 1326C405.902 1326 404.784 1325.74 403.906 1325.28L358.689 1301.28C357.715 1300.76 357.112 1300.02 357.014 1299.23C356.916 1298.44 357.33 1297.65 358.166 1297.05" fill="#6D6D6D" fill-opacity="0.2"/>
<path fill-rule="evenodd" clip-rule="evenodd" d="M358.159 1312.05C358.573 1311.75 359.079 1311.5 359.646 1311.32C360.214 1311.15 360.833 1311.04 361.468 1311.01C362.102 1310.98 362.741 1311.03 363.345 1311.15C363.95 1311.27 364.51 1311.47 364.993 1311.72L407.058 1334.05L449.123 1311.72C450.103 1311.24 451.352 1311 452.604 1311.08C453.856 1311.15 455.014 1311.52 455.833 1312.11C456.651 1312.7 457.067 1313.47 456.991 1314.24C456.916 1315.02 456.355 1315.75 455.427 1316.28L410.21 1340.28C409.332 1340.74 408.214 1341 407.058 1341C405.902 1341 404.784 1340.74 403.906 1340.28L358.689 1316.28C357.715 1315.76 357.112 1315.02 357.014 1314.23C356.916 1313.44 357.33 1312.65 358.166 1312.05" fill="white" fill-opacity="0.2"/>
<path fill-rule="evenodd" clip-rule="evenodd" d="M358.159 1327.05C358.573 1326.75 359.079 1326.5 359.646 1326.32C360.214 1326.15 360.833 1326.04 361.468 1326.01C362.102 1325.98 362.741 1326.03 363.345 1326.15C363.95 1326.27 364.51 1326.47 364.993 1326.72L407.058 1349.05L449.123 1326.72C450.103 1326.24 451.352 1326 452.604 1326.08C453.856 1326.15 455.014 1326.52 455.833 1327.11C456.651 1327.7 457.067 1328.47 456.991 1329.24C456.916 1330.02 456.355 1330.75 455.427 1331.28L410.21 1355.28C409.332 1355.74 408.214 1356 407.058 1356C405.902 1356 404.784 1355.74 403.906 1355.28L358.689 1331.28C357.715 1330.76 357.112 1330.02 357.014 1329.23C356.916 1328.44 357.33 1327.65 358.166 1327.05" fill="white" fill-opacity="0.2"/>
<path fill-rule="evenodd" clip-rule="evenodd" d="M473.159 1297.05C473.573 1296.75 474.079 1296.5 474.646 1296.32C475.214 1296.15 475.833 1296.04 476.468 1296.01C477.102 1295.98 477.741 1296.03 478.345 1296.15C478.95 1296.27 479.51 1296.47 479.993 1296.72L522.058 1319.05L564.123 1296.72C565.103 1296.24 566.352 1296 567.604 1296.08C568.856 1296.15 570.014 1296.52 570.833 1297.11C571.651 1297.7 572.067 1298.47 571.991 1299.24C571.916 1300.02 571.355 1300.75 570.427 1301.28L525.21 1325.28C524.332 1325.74 523.214 1326 522.058 1326C520.902 1326 519.784 1325.74 518.906 1325.28L473.689 1301.28C472.715 1300.76 472.112 1300.02 472.014 1299.23C471.916 1298.44 472.33 1297.65 473.166 1297.05" fill="#6D6D6D" fill-opacity="0.2"/>
<path fill-rule="evenodd" clip-rule="evenodd" d="M473.159 1312.05C473.573 1311.75 474.079 1311.5 474.646 1311.32C475.214 1311.15 475.833 1311.04 476.468 1311.01C477.102 1310.98 477.741 1311.03 478.345 1311.15C478.95 1311.27 479.51 1311.47 479.993 1311.72L522.058 1334.05L564.123 1311.72C565.103 1311.24 566.352 1311 567.604 1311.08C568.856 1311.15 570.014 1311.52 570.833 1312.11C571.651 1312.7 572.067 1313.47 571.991 1314.24C571.916 1315.02 571.355 1315.75 570.427 1316.28L525.21 1340.28C524.332 1340.74 523.214 1341 522.058 1341C520.902 1341 519.784 1340.74 518.906 1340.28L473.689 1316.28C472.715 1315.76 472.112 1315.02 472.014 1314.23C471.916 1313.44 472.33 1312.65 473.166 1312.05" fill="white" fill-opacity="0.2"/>
<path fill-rule="evenodd" clip-rule="evenodd" d="M473.159 1327.05C473.573 1326.75 474.079 1326.5 474.646 1326.32C475.214 1326.15 475.833 1326.04 476.468 1326.01C477.102 1325.98 477.741 1326.03 478.345 1326.15C478.95 1326.27 479.51 1326.47 479.993 1326.72L522.058 1349.05L564.123 1326.72C565.103 1326.24 566.352 1326 567.604 1326.08C568.856 1326.15 570.014 1326.52 570.833 1327.11C571.651 1327.7 572.067 1328.47 571.991 1329.24C571.916 1330.02 571.355 1330.75 570.427 1331.28L525.21 1355.28C524.332 1355.74 523.214 1356 522.058 1356C520.902 1356 519.784 1355.74 518.906 1355.28L473.689 1331.28C472.715 1330.76 472.112 1330.02 472.014 1329.23C471.916 1328.44 472.33 1327.65 473.166 1327.05" fill="white" fill-opacity="0.2"/>
<path fill-rule="evenodd" clip-rule="evenodd" d="M588.159 1297.05C588.573 1296.75 589.079 1296.5 589.646 1296.32C590.214 1296.15 590.833 1296.04 591.468 1296.01C592.102 1295.98 592.741 1296.03 593.345 1296.15C593.95 1296.27 594.51 1296.47 594.993 1296.72L637.058 1319.05L679.123 1296.72C680.103 1296.24 681.352 1296 682.604 1296.08C683.856 1296.15 685.014 1296.52 685.833 1297.11C686.651 1297.7 687.067 1298.47 686.991 1299.24C686.916 1300.02 686.355 1300.75 685.427 1301.28L640.21 1325.28C639.332 1325.74 638.214 1326 637.058 1326C635.902 1326 634.784 1325.74 633.906 1325.28L588.689 1301.28C587.715 1300.76 587.112 1300.02 587.014 1299.23C586.916 1298.44 587.33 1297.65 588.166 1297.05" fill="#6D6D6D" fill-opacity="0.2"/>
<path fill-rule="evenodd" clip-rule="evenodd" d="M588.159 1312.05C588.573 1311.75 589.079 1311.5 589.646 1311.32C590.214 1311.15 590.833 1311.04 591.468 1311.01C592.102 1310.98 592.741 1311.03 593.345 1311.15C593.95 1311.27 594.51 1311.47 594.993 1311.72L637.058 1334.05L679.123 1311.72C680.103 1311.24 681.352 1311 682.604 1311.08C683.856 1311.15 685.014 1311.52 685.833 1312.11C686.651 1312.7 687.067 1313.47 686.991 1314.24C686.916 1315.02 686.355 1315.75 685.427 1316.28L640.21 1340.28C639.332 1340.74 638.214 1341 637.058 1341C635.902 1341 634.784 1340.74 633.906 1340.28L588.689 1316.28C587.715 1315.76 587.112 1315.02 587.014 1314.23C586.916 1313.44 587.33 1312.65 588.166 1312.05" fill="white" fill-opacity="0.2"/>
<path fill-rule="evenodd" clip-rule="evenodd" d="M588.159 1327.05C588.573 1326.75 589.079 1326.5 589.646 1326.32C590.214 1326.15 590.833 1326.04 591.468 1326.01C592.102 1325.98 592.741 1326.03 593.345 1326.15C593.95 1326.27 594.51 1326.47 594.993 1326.72L637.058 1349.05L679.123 1326.72C680.103 1326.24 681.352 1326 682.604 1326.08C683.856 1326.15 685.014 1326.52 685.833 1327.11C686.651 1327.7 687.067 1328.47 686.991 1329.24C686.916 1330.02 686.355 1330.75 685.427 1331.28L640.21 1355.28C639.332 1355.74 638.214 1356 637.058 1356C635.902 1356 634.784 1355.74 633.906 1355.28L588.689 1331.28C587.715 1330.76 587.112 1330.02 587.014 1329.23C586.916 1328.44 587.33 1327.65 588.166 1327.05" fill="white" fill-opacity="0.2"/>
<path fill-rule="evenodd" clip-rule="evenodd" d="M13.1591 1647.05C13.5734 1646.75 14.0788 1646.5 14.6465 1646.32C15.2142 1646.15 15.8331 1646.04 16.4678 1646.01C17.1025 1645.98 17.7405 1646.03 18.3455 1646.15C18.9504 1646.27 19.5104 1646.47 19.9933 1646.72L62.058 1669.05L104.123 1646.72C105.103 1646.24 106.352 1646 107.604 1646.08C108.856 1646.15 110.014 1646.52 110.833 1647.11C111.651 1647.7 112.067 1648.47 111.991 1649.24C111.916 1650.02 111.355 1650.75 110.427 1651.28L65.2103 1675.28C64.3323 1675.74 63.2142 1676 62.058 1676C60.9018 1676 59.7837 1675.74 58.9057 1675.28L13.6888 1651.28C12.7146 1650.76 12.1123 1650.02 12.0142 1649.23C11.9161 1648.44 12.3302 1647.65 13.1656 1647.05" fill="#6D6D6D" fill-opacity="0.2"/>
<path fill-rule="evenodd" clip-rule="evenodd" d="M13.1591 1662.05C13.5734 1661.75 14.0788 1661.5 14.6465 1661.32C15.2142 1661.15 15.8331 1661.04 16.4678 1661.01C17.1025 1660.98 17.7405 1661.03 18.3455 1661.15C18.9504 1661.27 19.5104 1661.47 19.9933 1661.72L62.058 1684.05L104.123 1661.72C105.103 1661.24 106.352 1661 107.604 1661.08C108.856 1661.15 110.014 1661.52 110.833 1662.11C111.651 1662.7 112.067 1663.47 111.991 1664.24C111.916 1665.02 111.355 1665.75 110.427 1666.28L65.2103 1690.28C64.3323 1690.74 63.2142 1691 62.058 1691C60.9018 1691 59.7837 1690.74 58.9057 1690.28L13.6888 1666.28C12.7146 1665.76 12.1123 1665.02 12.0142 1664.23C11.9161 1663.44 12.3302 1662.65 13.1656 1662.05" fill="white" fill-opacity="0.2"/>
<path fill-rule="evenodd" clip-rule="evenodd" d="M13.1591 1677.05C13.5734 1676.75 14.0788 1676.5 14.6465 1676.32C15.2142 1676.15 15.8331 1676.04 16.4678 1676.01C17.1025 1675.98 17.7405 1676.03 18.3455 1676.15C18.9504 1676.27 19.5104 1676.47 19.9933 1676.72L62.058 1699.05L104.123 1676.72C105.103 1676.24 106.352 1676 107.604 1676.08C108.856 1676.15 110.014 1676.52 110.833 1677.11C111.651 1677.7 112.067 1678.47 111.991 1679.24C111.916 1680.02 111.355 1680.75 110.427 1681.28L65.2103 1705.28C64.3323 1705.74 63.2142 1706 62.058 1706C60.9018 1706 59.7837 1705.74 58.9057 1705.28L13.6888 1681.28C12.7146 1680.76 12.1123 1680.02 12.0142 1679.23C11.9161 1678.44 12.3302 1677.65 13.1656 1677.05" fill="white" fill-opacity="0.2"/>
<path fill-rule="evenodd" clip-rule="evenodd" d="M128.159 1647.05C128.573 1646.75 129.079 1646.5 129.646 1646.32C130.214 1646.15 130.833 1646.04 131.468 1646.01C132.102 1645.98 132.741 1646.03 133.345 1646.15C133.95 1646.27 134.51 1646.47 134.993 1646.72L177.058 1669.05L219.123 1646.72C220.103 1646.24 221.352 1646 222.604 1646.08C223.856 1646.15 225.014 1646.52 225.833 1647.11C226.651 1647.7 227.067 1648.47 226.991 1649.24C226.916 1650.02 226.355 1650.75 225.427 1651.28L180.21 1675.28C179.332 1675.74 178.214 1676 177.058 1676C175.902 1676 174.784 1675.74 173.906 1675.28L128.689 1651.28C127.715 1650.76 127.112 1650.02 127.014 1649.23C126.916 1648.44 127.33 1647.65 128.166 1647.05" fill="#6D6D6D" fill-opacity="0.2"/>
<path fill-rule="evenodd" clip-rule="evenodd" d="M128.159 1662.05C128.573 1661.75 129.079 1661.5 129.646 1661.32C130.214 1661.15 130.833 1661.04 131.468 1661.01C132.102 1660.98 132.741 1661.03 133.345 1661.15C133.95 1661.27 134.51 1661.47 134.993 1661.72L177.058 1684.05L219.123 1661.72C220.103 1661.24 221.352 1661 222.604 1661.08C223.856 1661.15 225.014 1661.52 225.833 1662.11C226.651 1662.7 227.067 1663.47 226.991 1664.24C226.916 1665.02 226.355 1665.75 225.427 1666.28L180.21 1690.28C179.332 1690.74 178.214 1691 177.058 1691C175.902 1691 174.784 1690.74 173.906 1690.28L128.689 1666.28C127.715 1665.76 127.112 1665.02 127.014 1664.23C126.916 1663.44 127.33 1662.65 128.166 1662.05" fill="white" fill-opacity="0.2"/>
<path fill-rule="evenodd" clip-rule="evenodd" d="M128.159 1677.05C128.573 1676.75 129.079 1676.5 129.646 1676.32C130.214 1676.15 130.833 1676.04 131.468 1676.01C132.102 1675.98 132.741 1676.03 133.345 1676.15C133.95 1676.27 134.51 1676.47 134.993 1676.72L177.058 1699.05L219.123 1676.72C220.103 1676.24 221.352 1676 222.604 1676.08C223.856 1676.15 225.014 1676.52 225.833 1677.11C226.651 1677.7 227.067 1678.47 226.991 1679.24C226.916 1680.02 226.355 1680.75 225.427 1681.28L180.21 1705.28C179.332 1705.74 178.214 1706 177.058 1706C175.902 1706 174.784 1705.74 173.906 1705.28L128.689 1681.28C127.715 1680.76 127.112 1680.02 127.014 1679.23C126.916 1678.44 127.33 1677.65 128.166 1677.05" fill="white" fill-opacity="0.2"/>
<path fill-rule="evenodd" clip-rule="evenodd" d="M243.159 1647.05C243.573 1646.75 244.079 1646.5 244.646 1646.32C245.214 1646.15 245.833 1646.04 246.468 1646.01C247.102 1645.98 247.741 1646.03 248.345 1646.15C248.95 1646.27 249.51 1646.47 249.993 1646.72L292.058 1669.05L334.123 1646.72C335.103 1646.24 336.352 1646 337.604 1646.08C338.856 1646.15 340.014 1646.52 340.833 1647.11C341.651 1647.7 342.067 1648.47 341.991 1649.24C341.916 1650.02 341.355 1650.75 340.427 1651.28L295.21 1675.28C294.332 1675.74 293.214 1676 292.058 1676C290.902 1676 289.784 1675.74 288.906 1675.28L243.689 1651.28C242.715 1650.76 242.112 1650.02 242.014 1649.23C241.916 1648.44 242.33 1647.65 243.166 1647.05" fill="#6D6D6D" fill-opacity="0.2"/>
<path fill-rule="evenodd" clip-rule="evenodd" d="M243.159 1662.05C243.573 1661.75 244.079 1661.5 244.646 1661.32C245.214 1661.15 245.833 1661.04 246.468 1661.01C247.102 1660.98 247.741 1661.03 248.345 1661.15C248.95 1661.27 249.51 1661.47 249.993 1661.72L292.058 1684.05L334.123 1661.72C335.103 1661.24 336.352 1661 337.604 1661.08C338.856 1661.15 340.014 1661.52 340.833 1662.11C341.651 1662.7 342.067 1663.47 341.991 1664.24C341.916 1665.02 341.355 1665.75 340.427 1666.28L295.21 1690.28C294.332 1690.74 293.214 1691 292.058 1691C290.902 1691 289.784 1690.74 288.906 1690.28L243.689 1666.28C242.715 1665.76 242.112 1665.02 242.014 1664.23C241.916 1663.44 242.33 1662.65 243.166 1662.05" fill="white" fill-opacity="0.2"/>
<path fill-rule="evenodd" clip-rule="evenodd" d="M243.159 1677.05C243.573 1676.75 244.079 1676.5 244.646 1676.32C245.214 1676.15 245.833 1676.04 246.468 1676.01C247.102 1675.98 247.741 1676.03 248.345 1676.15C248.95 1676.27 249.51 1676.47 249.993 1676.72L292.058 1699.05L334.123 1676.72C335.103 1676.24 336.352 1676 337.604 1676.08C338.856 1676.15 340.014 1676.52 340.833 1677.11C341.651 1677.7 342.067 1678.47 341.991 1679.24C341.916 1680.02 341.355 1680.75 340.427 1681.28L295.21 1705.28C294.332 1705.74 293.214 1706 292.058 1706C290.902 1706 289.784 1705.74 288.906 1705.28L243.689 1681.28C242.715 1680.76 242.112 1680.02 242.014 1679.23C241.916 1678.44 242.33 1677.65 243.166 1677.05" fill="white" fill-opacity="0.2"/>
<path fill-rule="evenodd" clip-rule="evenodd" d="M358.159 1647.05C358.573 1646.75 359.079 1646.5 359.646 1646.32C360.214 1646.15 360.833 1646.04 361.468 1646.01C362.102 1645.98 362.741 1646.03 363.345 1646.15C363.95 1646.27 364.51 1646.47 364.993 1646.72L407.058 1669.05L449.123 1646.72C450.103 1646.24 451.352 1646 452.604 1646.08C453.856 1646.15 455.014 1646.52 455.833 1647.11C456.651 1647.7 457.067 1648.47 456.991 1649.24C456.916 1650.02 456.355 1650.75 455.427 1651.28L410.21 1675.28C409.332 1675.74 408.214 1676 407.058 1676C405.902 1676 404.784 1675.74 403.906 1675.28L358.689 1651.28C357.715 1650.76 357.112 1650.02 357.014 1649.23C356.916 1648.44 357.33 1647.65 358.166 1647.05" fill="#6D6D6D" fill-opacity="0.2"/>
<path fill-rule="evenodd" clip-rule="evenodd" d="M358.159 1662.05C358.573 1661.75 359.079 1661.5 359.646 1661.32C360.214 1661.15 360.833 1661.04 361.468 1661.01C362.102 1660.98 362.741 1661.03 363.345 1661.15C363.95 1661.27 364.51 1661.47 364.993 1661.72L407.058 1684.05L449.123 1661.72C450.103 1661.24 451.352 1661 452.604 1661.08C453.856 1661.15 455.014 1661.52 455.833 1662.11C456.651 1662.7 457.067 1663.47 456.991 1664.24C456.916 1665.02 456.355 1665.75 455.427 1666.28L410.21 1690.28C409.332 1690.74 408.214 1691 407.058 1691C405.902 1691 404.784 1690.74 403.906 1690.28L358.689 1666.28C357.715 1665.76 357.112 1665.02 357.014 1664.23C356.916 1663.44 357.33 1662.65 358.166 1662.05" fill="white" fill-opacity="0.2"/>
<path fill-rule="evenodd" clip-rule="evenodd" d="M358.159 1677.05C358.573 1676.75 359.079 1676.5 359.646 1676.32C360.214 1676.15 360.833 1676.04 361.468 1676.01C362.102 1675.98 362.741 1676.03 363.345 1676.15C363.95 1676.27 364.51 1676.47 364.993 1676.72L407.058 1699.05L449.123 1676.72C450.103 1676.24 451.352 1676 452.604 1676.08C453.856 1676.15 455.014 1676.52 455.833 1677.11C456.651 1677.7 457.067 1678.47 456.991 1679.24C456.916 1680.02 456.355 1680.75 455.427 1681.28L410.21 1705.28C409.332 1705.74 408.214 1706 407.058 1706C405.902 1706 404.784 1705.74 403.906 1705.28L358.689 1681.28C357.715 1680.76 357.112 1680.02 357.014 1679.23C356.916 1678.44 357.33 1677.65 358.166 1677.05" fill="white" fill-opacity="0.2"/>
<path fill-rule="evenodd" clip-rule="evenodd" d="M473.159 1647.05C473.573 1646.75 474.079 1646.5 474.646 1646.32C475.214 1646.15 475.833 1646.04 476.468 1646.01C477.102 1645.98 477.741 1646.03 478.345 1646.15C478.95 1646.27 479.51 1646.47 479.993 1646.72L522.058 1669.05L564.123 1646.72C565.103 1646.24 566.352 1646 567.604 1646.08C568.856 1646.15 570.014 1646.52 570.833 1647.11C571.651 1647.7 572.067 1648.47 571.991 1649.24C571.916 1650.02 571.355 1650.75 570.427 1651.28L525.21 1675.28C524.332 1675.74 523.214 1676 522.058 1676C520.902 1676 519.784 1675.74 518.906 1675.28L473.689 1651.28C472.715 1650.76 472.112 1650.02 472.014 1649.23C471.916 1648.44 472.33 1647.65 473.166 1647.05" fill="#6D6D6D" fill-opacity="0.2"/>
<path fill-rule="evenodd" clip-rule="evenodd" d="M473.159 1662.05C473.573 1661.75 474.079 1661.5 474.646 1661.32C475.214 1661.15 475.833 1661.04 476.468 1661.01C477.102 1660.98 477.741 1661.03 478.345 1661.15C478.95 1661.27 479.51 1661.47 479.993 1661.72L522.058 1684.05L564.123 1661.72C565.103 1661.24 566.352 1661 567.604 1661.08C568.856 1661.15 570.014 1661.52 570.833 1662.11C571.651 1662.7 572.067 1663.47 571.991 1664.24C571.916 1665.02 571.355 1665.75 570.427 1666.28L525.21 1690.28C524.332 1690.74 523.214 1691 522.058 1691C520.902 1691 519.784 1690.74 518.906 1690.28L473.689 1666.28C472.715 1665.76 472.112 1665.02 472.014 1664.23C471.916 1663.44 472.33 1662.65 473.166 1662.05" fill="white" fill-opacity="0.2"/>
<path fill-rule="evenodd" clip-rule="evenodd" d="M473.159 1677.05C473.573 1676.75 474.079 1676.5 474.646 1676.32C475.214 1676.15 475.833 1676.04 476.468 1676.01C477.102 1675.98 477.741 1676.03 478.345 1676.15C478.95 1676.27 479.51 1676.47 479.993 1676.72L522.058 1699.05L564.123 1676.72C565.103 1676.24 566.352 1676 567.604 1676.08C568.856 1676.15 570.014 1676.52 570.833 1677.11C571.651 1677.7 572.067 1678.47 571.991 1679.24C571.916 1680.02 571.355 1680.75 570.427 1681.28L525.21 1705.28C524.332 1705.74 523.214 1706 522.058 1706C520.902 1706 519.784 1705.74 518.906 1705.28L473.689 1681.28C472.715 1680.76 472.112 1680.02 472.014 1679.23C471.916 1678.44 472.33 1677.65 473.166 1677.05" fill="white" fill-opacity="0.2"/>
<path fill-rule="evenodd" clip-rule="evenodd" d="M588.159 1647.05C588.573 1646.75 589.079 1646.5 589.646 1646.32C590.214 1646.15 590.833 1646.04 591.468 1646.01C592.102 1645.98 592.741 1646.03 593.345 1646.15C593.95 1646.27 594.51 1646.47 594.993 1646.72L637.058 1669.05L679.123 1646.72C680.103 1646.24 681.352 1646 682.604 1646.08C683.856 1646.15 685.014 1646.52 685.833 1647.11C686.651 1647.7 687.067 1648.47 686.991 1649.24C686.916 1650.02 686.355 1650.75 685.427 1651.28L640.21 1675.28C639.332 1675.74 638.214 1676 637.058 1676C635.902 1676 634.784 1675.74 633.906 1675.28L588.689 1651.28C587.715 1650.76 587.112 1650.02 587.014 1649.23C586.916 1648.44 587.33 1647.65 588.166 1647.05" fill="#6D6D6D" fill-opacity="0.2"/>
<path fill-rule="evenodd" clip-rule="evenodd" d="M588.159 1662.05C588.573 1661.75 589.079 1661.5 589.646 1661.32C590.214 1661.15 590.833 1661.04 591.468 1661.01C592.102 1660.98 592.741 1661.03 593.345 1661.15C593.95 1661.27 594.51 1661.47 594.993 1661.72L637.058 1684.05L679.123 1661.72C680.103 1661.24 681.352 1661 682.604 1661.08C683.856 1661.15 685.014 1661.52 685.833 1662.11C686.651 1662.7 687.067 1663.47 686.991 1664.24C686.916 1665.02 686.355 1665.75 685.427 1666.28L640.21 1690.28C639.332 1690.74 638.214 1691 637.058 1691C635.902 1691 634.784 1690.74 633.906 1690.28L588.689 1666.28C587.715 1665.76 587.112 1665.02 587.014 1664.23C586.916 1663.44 587.33 1662.65 588.166 1662.05" fill="white" fill-opacity="0.2"/>
<path fill-rule="evenodd" clip-rule="evenodd" d="M588.159 1677.05C588.573 1676.75 589.079 1676.5 589.646 1676.32C590.214 1676.15 590.833 1676.04 591.468 1676.01C592.102 1675.98 592.741 1676.03 593.345 1676.15C593.95 1676.27 594.51 1676.47 594.993 1676.72L637.058 1699.05L679.123 1676.72C680.103 1676.24 681.352 1676 682.604 1676.08C683.856 1676.15 685.014 1676.52 685.833 1677.11C686.651 1677.7 687.067 1678.47 686.991 1679.24C686.916 1680.02 686.355 1680.75 685.427 1681.28L640.21 1705.28C639.332 1705.74 638.214 1706 637.058 1706C635.902 1706 634.784 1705.74 633.906 1705.28L588.689 1681.28C587.715 1680.76 587.112 1680.02 587.014 1679.23C586.916 1678.44 587.33 1677.65 588.166 1677.05" fill="white" fill-opacity="0.2"/>
<path fill-rule="evenodd" clip-rule="evenodd" d="M13.1591 2317.05C13.5734 2316.75 14.0788 2316.5 14.6465 2316.32C15.2142 2316.15 15.8331 2316.04 16.4678 2316.01C17.1025 2315.98 17.7405 2316.03 18.3455 2316.15C18.9504 2316.27 19.5104 2316.47 19.9933 2316.72L62.058 2339.05L104.123 2316.72C105.103 2316.24 106.352 2316 107.604 2316.08C108.856 2316.15 110.014 2316.52 110.833 2317.11C111.651 2317.7 112.067 2318.47 111.991 2319.24C111.916 2320.02 111.355 2320.75 110.427 2321.28L65.2103 2345.28C64.3323 2345.74 63.2142 2346 62.058 2346C60.9018 2346 59.7837 2345.74 58.9057 2345.28L13.6888 2321.28C12.7146 2320.76 12.1123 2320.02 12.0142 2319.23C11.9161 2318.44 12.3302 2317.65 13.1656 2317.05" fill="#6D6D6D" fill-opacity="0.2"/>
<path fill-rule="evenodd" clip-rule="evenodd" d="M13.1591 2332.05C13.5734 2331.75 14.0788 2331.5 14.6465 2331.32C15.2142 2331.15 15.8331 2331.04 16.4678 2331.01C17.1025 2330.98 17.7405 2331.03 18.3455 2331.15C18.9504 2331.27 19.5104 2331.47 19.9933 2331.72L62.058 2354.05L104.123 2331.72C105.103 2331.24 106.352 2331 107.604 2331.08C108.856 2331.15 110.014 2331.52 110.833 2332.11C111.651 2332.7 112.067 2333.47 111.991 2334.24C111.916 2335.02 111.355 2335.75 110.427 2336.28L65.2103 2360.28C64.3323 2360.74 63.2142 2361 62.058 2361C60.9018 2361 59.7837 2360.74 58.9057 2360.28L13.6888 2336.28C12.7146 2335.76 12.1123 2335.02 12.0142 2334.23C11.9161 2333.44 12.3302 2332.65 13.1656 2332.05" fill="white" fill-opacity="0.2"/>
<path fill-rule="evenodd" clip-rule="evenodd" d="M13.1591 2347.05C13.5734 2346.75 14.0788 2346.5 14.6465 2346.32C15.2142 2346.15 15.8331 2346.04 16.4678 2346.01C17.1025 2345.98 17.7405 2346.03 18.3455 2346.15C18.9504 2346.27 19.5104 2346.47 19.9933 2346.72L62.058 2369.05L104.123 2346.72C105.103 2346.24 106.352 2346 107.604 2346.08C108.856 2346.15 110.014 2346.52 110.833 2347.11C111.651 2347.7 112.067 2348.47 111.991 2349.24C111.916 2350.02 111.355 2350.75 110.427 2351.28L65.2103 2375.28C64.3323 2375.74 63.2142 2376 62.058 2376C60.9018 2376 59.7837 2375.74 58.9057 2375.28L13.6888 2351.28C12.7146 2350.76 12.1123 2350.02 12.0142 2349.23C11.9161 2348.44 12.3302 2347.65 13.1656 2347.05" fill="white" fill-opacity="0.2"/>
<path fill-rule="evenodd" clip-rule="evenodd" d="M128.159 2317.05C128.573 2316.75 129.079 2316.5 129.646 2316.32C130.214 2316.15 130.833 2316.04 131.468 2316.01C132.102 2315.98 132.741 2316.03 133.345 2316.15C133.95 2316.27 134.51 2316.47 134.993 2316.72L177.058 2339.05L219.123 2316.72C220.103 2316.24 221.352 2316 222.604 2316.08C223.856 2316.15 225.014 2316.52 225.833 2317.11C226.651 2317.7 227.067 2318.47 226.991 2319.24C226.916 2320.02 226.355 2320.75 225.427 2321.28L180.21 2345.28C179.332 2345.74 178.214 2346 177.058 2346C175.902 2346 174.784 2345.74 173.906 2345.28L128.689 2321.28C127.715 2320.76 127.112 2320.02 127.014 2319.23C126.916 2318.44 127.33 2317.65 128.166 2317.05" fill="#6D6D6D" fill-opacity="0.2"/>
<path fill-rule="evenodd" clip-rule="evenodd" d="M128.159 2332.05C128.573 2331.75 129.079 2331.5 129.646 2331.32C130.214 2331.15 130.833 2331.04 131.468 2331.01C132.102 2330.98 132.741 2331.03 133.345 2331.15C133.95 2331.27 134.51 2331.47 134.993 2331.72L177.058 2354.05L219.123 2331.72C220.103 2331.24 221.352 2331 222.604 2331.08C223.856 2331.15 225.014 2331.52 225.833 2332.11C226.651 2332.7 227.067 2333.47 226.991 2334.24C226.916 2335.02 226.355 2335.75 225.427 2336.28L180.21 2360.28C179.332 2360.74 178.214 2361 177.058 2361C175.902 2361 174.784 2360.74 173.906 2360.28L128.689 2336.28C127.715 2335.76 127.112 2335.02 127.014 2334.23C126.916 2333.44 127.33 2332.65 128.166 2332.05" fill="white" fill-opacity="0.2"/>
<path fill-rule="evenodd" clip-rule="evenodd" d="M128.159 2347.05C128.573 2346.75 129.079 2346.5 129.646 2346.32C130.214 2346.15 130.833 2346.04 131.468 2346.01C132.102 2345.98 132.741 2346.03 133.345 2346.15C133.95 2346.27 134.51 2346.47 134.993 2346.72L177.058 2369.05L219.123 2346.72C220.103 2346.24 221.352 2346 222.604 2346.08C223.856 2346.15 225.014 2346.52 225.833 2347.11C226.651 2347.7 227.067 2348.47 226.991 2349.24C226.916 2350.02 226.355 2350.75 225.427 2351.28L180.21 2375.28C179.332 2375.74 178.214 2376 177.058 2376C175.902 2376 174.784 2375.74 173.906 2375.28L128.689 2351.28C127.715 2350.76 127.112 2350.02 127.014 2349.23C126.916 2348.44 127.33 2347.65 128.166 2347.05" fill="white" fill-opacity="0.2"/>
<path fill-rule="evenodd" clip-rule="evenodd" d="M243.159 2317.05C243.573 2316.75 244.079 2316.5 244.646 2316.32C245.214 2316.15 245.833 2316.04 246.468 2316.01C247.102 2315.98 247.741 2316.03 248.345 2316.15C248.95 2316.27 249.51 2316.47 249.993 2316.72L292.058 2339.05L334.123 2316.72C335.103 2316.24 336.352 2316 337.604 2316.08C338.856 2316.15 340.014 2316.52 340.833 2317.11C341.651 2317.7 342.067 2318.47 341.991 2319.24C341.916 2320.02 341.355 2320.75 340.427 2321.28L295.21 2345.28C294.332 2345.74 293.214 2346 292.058 2346C290.902 2346 289.784 2345.74 288.906 2345.28L243.689 2321.28C242.715 2320.76 242.112 2320.02 242.014 2319.23C241.916 2318.44 242.33 2317.65 243.166 2317.05" fill="#6D6D6D" fill-opacity="0.2"/>
<path fill-rule="evenodd" clip-rule="evenodd" d="M243.159 2332.05C243.573 2331.75 244.079 2331.5 244.646 2331.32C245.214 2331.15 245.833 2331.04 246.468 2331.01C247.102 2330.98 247.741 2331.03 248.345 2331.15C248.95 2331.27 249.51 2331.47 249.993 2331.72L292.058 2354.05L334.123 2331.72C335.103 2331.24 336.352 2331 337.604 2331.08C338.856 2331.15 340.014 2331.52 340.833 2332.11C341.651 2332.7 342.067 2333.47 341.991 2334.24C341.916 2335.02 341.355 2335.75 340.427 2336.28L295.21 2360.28C294.332 2360.74 293.214 2361 292.058 2361C290.902 2361 289.784 2360.74 288.906 2360.28L243.689 2336.28C242.715 2335.76 242.112 2335.02 242.014 2334.23C241.916 2333.44 242.33 2332.65 243.166 2332.05" fill="white" fill-opacity="0.2"/>
<path fill-rule="evenodd" clip-rule="evenodd" d="M243.159 2347.05C243.573 2346.75 244.079 2346.5 244.646 2346.32C245.214 2346.15 245.833 2346.04 246.468 2346.01C247.102 2345.98 247.741 2346.03 248.345 2346.15C248.95 2346.27 249.51 2346.47 249.993 2346.72L292.058 2369.05L334.123 2346.72C335.103 2346.24 336.352 2346 337.604 2346.08C338.856 2346.15 340.014 2346.52 340.833 2347.11C341.651 2347.7 342.067 2348.47 341.991 2349.24C341.916 2350.02 341.355 2350.75 340.427 2351.28L295.21 2375.28C294.332 2375.74 293.214 2376 292.058 2376C290.902 2376 289.784 2375.74 288.906 2375.28L243.689 2351.28C242.715 2350.76 242.112 2350.02 242.014 2349.23C241.916 2348.44 242.33 2347.65 243.166 2347.05" fill="white" fill-opacity="0.2"/>
<path fill-rule="evenodd" clip-rule="evenodd" d="M358.159 2317.05C358.573 2316.75 359.079 2316.5 359.646 2316.32C360.214 2316.15 360.833 2316.04 361.468 2316.01C362.102 2315.98 362.741 2316.03 363.345 2316.15C363.95 2316.27 364.51 2316.47 364.993 2316.72L407.058 2339.05L449.123 2316.72C450.103 2316.24 451.352 2316 452.604 2316.08C453.856 2316.15 455.014 2316.52 455.833 2317.11C456.651 2317.7 457.067 2318.47 456.991 2319.24C456.916 2320.02 456.355 2320.75 455.427 2321.28L410.21 2345.28C409.332 2345.74 408.214 2346 407.058 2346C405.902 2346 404.784 2345.74 403.906 2345.28L358.689 2321.28C357.715 2320.76 357.112 2320.02 357.014 2319.23C356.916 2318.44 357.33 2317.65 358.166 2317.05" fill="#6D6D6D" fill-opacity="0.2"/>
<path fill-rule="evenodd" clip-rule="evenodd" d="M358.159 2332.05C358.573 2331.75 359.079 2331.5 359.646 2331.32C360.214 2331.15 360.833 2331.04 361.468 2331.01C362.102 2330.98 362.741 2331.03 363.345 2331.15C363.95 2331.27 364.51 2331.47 364.993 2331.72L407.058 2354.05L449.123 2331.72C450.103 2331.24 451.352 2331 452.604 2331.08C453.856 2331.15 455.014 2331.52 455.833 2332.11C456.651 2332.7 457.067 2333.47 456.991 2334.24C456.916 2335.02 456.355 2335.75 455.427 2336.28L410.21 2360.28C409.332 2360.74 408.214 2361 407.058 2361C405.902 2361 404.784 2360.74 403.906 2360.28L358.689 2336.28C357.715 2335.76 357.112 2335.02 357.014 2334.23C356.916 2333.44 357.33 2332.65 358.166 2332.05" fill="white" fill-opacity="0.2"/>
<path fill-rule="evenodd" clip-rule="evenodd" d="M358.159 2347.05C358.573 2346.75 359.079 2346.5 359.646 2346.32C360.214 2346.15 360.833 2346.04 361.468 2346.01C362.102 2345.98 362.741 2346.03 363.345 2346.15C363.95 2346.27 364.51 2346.47 364.993 2346.72L407.058 2369.05L449.123 2346.72C450.103 2346.24 451.352 2346 452.604 2346.08C453.856 2346.15 455.014 2346.52 455.833 2347.11C456.651 2347.7 457.067 2348.47 456.991 2349.24C456.916 2350.02 456.355 2350.75 455.427 2351.28L410.21 2375.28C409.332 2375.74 408.214 2376 407.058 2376C405.902 2376 404.784 2375.74 403.906 2375.28L358.689 2351.28C357.715 2350.76 357.112 2350.02 357.014 2349.23C356.916 2348.44 357.33 2347.65 358.166 2347.05" fill="white" fill-opacity="0.2"/>
<path fill-rule="evenodd" clip-rule="evenodd" d="M473.159 2317.05C473.573 2316.75 474.079 2316.5 474.646 2316.32C475.214 2316.15 475.833 2316.04 476.468 2316.01C477.102 2315.98 477.741 2316.03 478.345 2316.15C478.95 2316.27 479.51 2316.47 479.993 2316.72L522.058 2339.05L564.123 2316.72C565.103 2316.24 566.352 2316 567.604 2316.08C568.856 2316.15 570.014 2316.52 570.833 2317.11C571.651 2317.7 572.067 2318.47 571.991 2319.24C571.916 2320.02 571.355 2320.75 570.427 2321.28L525.21 2345.28C524.332 2345.74 523.214 2346 522.058 2346C520.902 2346 519.784 2345.74 518.906 2345.28L473.689 2321.28C472.715 2320.76 472.112 2320.02 472.014 2319.23C471.916 2318.44 472.33 2317.65 473.166 2317.05" fill="#6D6D6D" fill-opacity="0.2"/>
<path fill-rule="evenodd" clip-rule="evenodd" d="M473.159 2332.05C473.573 2331.75 474.079 2331.5 474.646 2331.32C475.214 2331.15 475.833 2331.04 476.468 2331.01C477.102 2330.98 477.741 2331.03 478.345 2331.15C478.95 2331.27 479.51 2331.47 479.993 2331.72L522.058 2354.05L564.123 2331.72C565.103 2331.24 566.352 2331 567.604 2331.08C568.856 2331.15 570.014 2331.52 570.833 2332.11C571.651 2332.7 572.067 2333.47 571.991 2334.24C571.916 2335.02 571.355 2335.75 570.427 2336.28L525.21 2360.28C524.332 2360.74 523.214 2361 522.058 2361C520.902 2361 519.784 2360.74 518.906 2360.28L473.689 2336.28C472.715 2335.76 472.112 2335.02 472.014 2334.23C471.916 2333.44 472.33 2332.65 473.166 2332.05" fill="white" fill-opacity="0.2"/>
<path fill-rule="evenodd" clip-rule="evenodd" d="M473.159 2347.05C473.573 2346.75 474.079 2346.5 474.646 2346.32C475.214 2346.15 475.833 2346.04 476.468 2346.01C477.102 2345.98 477.741 2346.03 478.345 2346.15C478.95 2346.27 479.51 2346.47 479.993 2346.72L522.058 2369.05L564.123 2346.72C565.103 2346.24 566.352 2346 567.604 2346.08C568.856 2346.15 570.014 2346.52 570.833 2347.11C571.651 2347.7 572.067 2348.47 571.991 2349.24C571.916 2350.02 571.355 2350.75 570.427 2351.28L525.21 2375.28C524.332 2375.74 523.214 2376 522.058 2376C520.902 2376 519.784 2375.74 518.906 2375.28L473.689 2351.28C472.715 2350.76 472.112 2350.02 472.014 2349.23C471.916 2348.44 472.33 2347.65 473.166 2347.05" fill="white" fill-opacity="0.2"/>
<path fill-rule="evenodd" clip-rule="evenodd" d="M588.159 2317.05C588.573 2316.75 589.079 2316.5 589.646 2316.32C590.214 2316.15 590.833 2316.04 591.468 2316.01C592.102 2315.98 592.741 2316.03 593.345 2316.15C593.95 2316.27 594.51 2316.47 594.993 2316.72L637.058 2339.05L679.123 2316.72C680.103 2316.24 681.352 2316 682.604 2316.08C683.856 2316.15 685.014 2316.52 685.833 2317.11C686.651 2317.7 687.067 2318.47 686.991 2319.24C686.916 2320.02 686.355 2320.75 685.427 2321.28L640.21 2345.28C639.332 2345.74 638.214 2346 637.058 2346C635.902 2346 634.784 2345.74 633.906 2345.28L588.689 2321.28C587.715 2320.76 587.112 2320.02 587.014 2319.23C586.916 2318.44 587.33 2317.65 588.166 2317.05" fill="#6D6D6D" fill-opacity="0.2"/>
<path fill-rule="evenodd" clip-rule="evenodd" d="M588.159 2332.05C588.573 2331.75 589.079 2331.5 589.646 2331.32C590.214 2331.15 590.833 2331.04 591.468 2331.01C592.102 2330.98 592.741 2331.03 593.345 2331.15C593.95 2331.27 594.51 2331.47 594.993 2331.72L637.058 2354.05L679.123 2331.72C680.103 2331.24 681.352 2331 682.604 2331.08C683.856 2331.15 685.014 2331.52 685.833 2332.11C686.651 2332.7 687.067 2333.47 686.991 2334.24C686.916 2335.02 686.355 2335.75 685.427 2336.28L640.21 2360.28C639.332 2360.74 638.214 2361 637.058 2361C635.902 2361 634.784 2360.74 633.906 2360.28L588.689 2336.28C587.715 2335.76 587.112 2335.02 587.014 2334.23C586.916 2333.44 587.33 2332.65 588.166 2332.05" fill="white" fill-opacity="0.2"/>
<path fill-rule="evenodd" clip-rule="evenodd" d="M588.159 2347.05C588.573 2346.75 589.079 2346.5 589.646 2346.32C590.214 2346.15 590.833 2346.04 591.468 2346.01C592.102 2345.98 592.741 2346.03 593.345 2346.15C593.95 2346.27 594.51 2346.47 594.993 2346.72L637.058 2369.05L679.123 2346.72C680.103 2346.24 681.352 2346 682.604 2346.08C683.856 2346.15 685.014 2346.52 685.833 2347.11C686.651 2347.7 687.067 2348.47 686.991 2349.24C686.916 2350.02 686.355 2350.75 685.427 2351.28L640.21 2375.28C639.332 2375.74 638.214 2376 637.058 2376C635.902 2376 634.784 2375.74 633.906 2375.28L588.689 2351.28C587.715 2350.76 587.112 2350.02 587.014 2349.23C586.916 2348.44 587.33 2347.65 588.166 2347.05" fill="white" fill-opacity="0.2"/>
<path fill-rule="evenodd" clip-rule="evenodd" d="M13.1591 2667.05C13.5734 2666.75 14.0788 2666.5 14.6465 2666.32C15.2142 2666.15 15.8331 2666.04 16.4678 2666.01C17.1025 2665.98 17.7405 2666.03 18.3455 2666.15C18.9504 2666.27 19.5104 2666.47 19.9933 2666.72L62.058 2689.05L104.123 2666.72C105.103 2666.24 106.352 2666 107.604 2666.08C108.856 2666.15 110.014 2666.52 110.833 2667.11C111.651 2667.7 112.067 2668.47 111.991 2669.24C111.916 2670.02 111.355 2670.75 110.427 2671.28L65.2103 2695.28C64.3323 2695.74 63.2142 2696 62.058 2696C60.9018 2696 59.7837 2695.74 58.9057 2695.28L13.6888 2671.28C12.7146 2670.76 12.1123 2670.02 12.0142 2669.23C11.9161 2668.44 12.3302 2667.65 13.1656 2667.05" fill="#6D6D6D" fill-opacity="0.2"/>
<path fill-rule="evenodd" clip-rule="evenodd" d="M13.1591 2682.05C13.5734 2681.75 14.0788 2681.5 14.6465 2681.32C15.2142 2681.15 15.8331 2681.04 16.4678 2681.01C17.1025 2680.98 17.7405 2681.03 18.3455 2681.15C18.9504 2681.27 19.5104 2681.47 19.9933 2681.72L62.058 2704.05L104.123 2681.72C105.103 2681.24 106.352 2681 107.604 2681.08C108.856 2681.15 110.014 2681.52 110.833 2682.11C111.651 2682.7 112.067 2683.47 111.991 2684.24C111.916 2685.02 111.355 2685.75 110.427 2686.28L65.2103 2710.28C64.3323 2710.74 63.2142 2711 62.058 2711C60.9018 2711 59.7837 2710.74 58.9057 2710.28L13.6888 2686.28C12.7146 2685.76 12.1123 2685.02 12.0142 2684.23C11.9161 2683.44 12.3302 2682.65 13.1656 2682.05" fill="white" fill-opacity="0.2"/>
<path fill-rule="evenodd" clip-rule="evenodd" d="M13.1591 2697.05C13.5734 2696.75 14.0788 2696.5 14.6465 2696.32C15.2142 2696.15 15.8331 2696.04 16.4678 2696.01C17.1025 2695.98 17.7405 2696.03 18.3455 2696.15C18.9504 2696.27 19.5104 2696.47 19.9933 2696.72L62.058 2719.05L104.123 2696.72C105.103 2696.24 106.352 2696 107.604 2696.08C108.856 2696.15 110.014 2696.52 110.833 2697.11C111.651 2697.7 112.067 2698.47 111.991 2699.24C111.916 2700.02 111.355 2700.75 110.427 2701.28L65.2103 2725.28C64.3323 2725.74 63.2142 2726 62.058 2726C60.9018 2726 59.7837 2725.74 58.9057 2725.28L13.6888 2701.28C12.7146 2700.76 12.1123 2700.02 12.0142 2699.23C11.9161 2698.44 12.3302 2697.65 13.1656 2697.05" fill="white" fill-opacity="0.2"/>
<path fill-rule="evenodd" clip-rule="evenodd" d="M128.159 2667.05C128.573 2666.75 129.079 2666.5 129.646 2666.32C130.214 2666.15 130.833 2666.04 131.468 2666.01C132.102 2665.98 132.741 2666.03 133.345 2666.15C133.95 2666.27 134.51 2666.47 134.993 2666.72L177.058 2689.05L219.123 2666.72C220.103 2666.24 221.352 2666 222.604 2666.08C223.856 2666.15 225.014 2666.52 225.833 2667.11C226.651 2667.7 227.067 2668.47 226.991 2669.24C226.916 2670.02 226.355 2670.75 225.427 2671.28L180.21 2695.28C179.332 2695.74 178.214 2696 177.058 2696C175.902 2696 174.784 2695.74 173.906 2695.28L128.689 2671.28C127.715 2670.76 127.112 2670.02 127.014 2669.23C126.916 2668.44 127.33 2667.65 128.166 2667.05" fill="#6D6D6D" fill-opacity="0.2"/>
<path fill-rule="evenodd" clip-rule="evenodd" d="M128.159 2682.05C128.573 2681.75 129.079 2681.5 129.646 2681.32C130.214 2681.15 130.833 2681.04 131.468 2681.01C132.102 2680.98 132.741 2681.03 133.345 2681.15C133.95 2681.27 134.51 2681.47 134.993 2681.72L177.058 2704.05L219.123 2681.72C220.103 2681.24 221.352 2681 222.604 2681.08C223.856 2681.15 225.014 2681.52 225.833 2682.11C226.651 2682.7 227.067 2683.47 226.991 2684.24C226.916 2685.02 226.355 2685.75 225.427 2686.28L180.21 2710.28C179.332 2710.74 178.214 2711 177.058 2711C175.902 2711 174.784 2710.74 173.906 2710.28L128.689 2686.28C127.715 2685.76 127.112 2685.02 127.014 2684.23C126.916 2683.44 127.33 2682.65 128.166 2682.05" fill="white" fill-opacity="0.2"/>
<path fill-rule="evenodd" clip-rule="evenodd" d="M128.159 2697.05C128.573 2696.75 129.079 2696.5 129.646 2696.32C130.214 2696.15 130.833 2696.04 131.468 2696.01C132.102 2695.98 132.741 2696.03 133.345 2696.15C133.95 2696.27 134.51 2696.47 134.993 2696.72L177.058 2719.05L219.123 2696.72C220.103 2696.24 221.352 2696 222.604 2696.08C223.856 2696.15 225.014 2696.52 225.833 2697.11C226.651 2697.7 227.067 2698.47 226.991 2699.24C226.916 2700.02 226.355 2700.75 225.427 2701.28L180.21 2725.28C179.332 2725.74 178.214 2726 177.058 2726C175.902 2726 174.784 2725.74 173.906 2725.28L128.689 2701.28C127.715 2700.76 127.112 2700.02 127.014 2699.23C126.916 2698.44 127.33 2697.65 128.166 2697.05" fill="white" fill-opacity="0.2"/>
<path fill-rule="evenodd" clip-rule="evenodd" d="M243.159 2667.05C243.573 2666.75 244.079 2666.5 244.646 2666.32C245.214 2666.15 245.833 2666.04 246.468 2666.01C247.102 2665.98 247.741 2666.03 248.345 2666.15C248.95 2666.27 249.51 2666.47 249.993 2666.72L292.058 2689.05L334.123 2666.72C335.103 2666.24 336.352 2666 337.604 2666.08C338.856 2666.15 340.014 2666.52 340.833 2667.11C341.651 2667.7 342.067 2668.47 341.991 2669.24C341.916 2670.02 341.355 2670.75 340.427 2671.28L295.21 2695.28C294.332 2695.74 293.214 2696 292.058 2696C290.902 2696 289.784 2695.74 288.906 2695.28L243.689 2671.28C242.715 2670.76 242.112 2670.02 242.014 2669.23C241.916 2668.44 242.33 2667.65 243.166 2667.05" fill="#6D6D6D" fill-opacity="0.2"/>
<path fill-rule="evenodd" clip-rule="evenodd" d="M243.159 2682.05C243.573 2681.75 244.079 2681.5 244.646 2681.32C245.214 2681.15 245.833 2681.04 246.468 2681.01C247.102 2680.98 247.741 2681.03 248.345 2681.15C248.95 2681.27 249.51 2681.47 249.993 2681.72L292.058 2704.05L334.123 2681.72C335.103 2681.24 336.352 2681 337.604 2681.08C338.856 2681.15 340.014 2681.52 340.833 2682.11C341.651 2682.7 342.067 2683.47 341.991 2684.24C341.916 2685.02 341.355 2685.75 340.427 2686.28L295.21 2710.28C294.332 2710.74 293.214 2711 292.058 2711C290.902 2711 289.784 2710.74 288.906 2710.28L243.689 2686.28C242.715 2685.76 242.112 2685.02 242.014 2684.23C241.916 2683.44 242.33 2682.65 243.166 2682.05" fill="white" fill-opacity="0.2"/>
<path fill-rule="evenodd" clip-rule="evenodd" d="M243.159 2697.05C243.573 2696.75 244.079 2696.5 244.646 2696.32C245.214 2696.15 245.833 2696.04 246.468 2696.01C247.102 2695.98 247.741 2696.03 248.345 2696.15C248.95 2696.27 249.51 2696.47 249.993 2696.72L292.058 2719.05L334.123 2696.72C335.103 2696.24 336.352 2696 337.604 2696.08C338.856 2696.15 340.014 2696.52 340.833 2697.11C341.651 2697.7 342.067 2698.47 341.991 2699.24C341.916 2700.02 341.355 2700.75 340.427 2701.28L295.21 2725.28C294.332 2725.74 293.214 2726 292.058 2726C290.902 2726 289.784 2725.74 288.906 2725.28L243.689 2701.28C242.715 2700.76 242.112 2700.02 242.014 2699.23C241.916 2698.44 242.33 2697.65 243.166 2697.05" fill="white" fill-opacity="0.2"/>
<path fill-rule="evenodd" clip-rule="evenodd" d="M358.159 2667.05C358.573 2666.75 359.079 2666.5 359.646 2666.32C360.214 2666.15 360.833 2666.04 361.468 2666.01C362.102 2665.98 362.741 2666.03 363.345 2666.15C363.95 2666.27 364.51 2666.47 364.993 2666.72L407.058 2689.05L449.123 2666.72C450.103 2666.24 451.352 2666 452.604 2666.08C453.856 2666.15 455.014 2666.52 455.833 2667.11C456.651 2667.7 457.067 2668.47 456.991 2669.24C456.916 2670.02 456.355 2670.75 455.427 2671.28L410.21 2695.28C409.332 2695.74 408.214 2696 407.058 2696C405.902 2696 404.784 2695.74 403.906 2695.28L358.689 2671.28C357.715 2670.76 357.112 2670.02 357.014 2669.23C356.916 2668.44 357.33 2667.65 358.166 2667.05" fill="#6D6D6D" fill-opacity="0.2"/>
<path fill-rule="evenodd" clip-rule="evenodd" d="M358.159 2682.05C358.573 2681.75 359.079 2681.5 359.646 2681.32C360.214 2681.15 360.833 2681.04 361.468 2681.01C362.102 2680.98 362.741 2681.03 363.345 2681.15C363.95 2681.27 364.51 2681.47 364.993 2681.72L407.058 2704.05L449.123 2681.72C450.103 2681.24 451.352 2681 452.604 2681.08C453.856 2681.15 455.014 2681.52 455.833 2682.11C456.651 2682.7 457.067 2683.47 456.991 2684.24C456.916 2685.02 456.355 2685.75 455.427 2686.28L410.21 2710.28C409.332 2710.74 408.214 2711 407.058 2711C405.902 2711 404.784 2710.74 403.906 2710.28L358.689 2686.28C357.715 2685.76 357.112 2685.02 357.014 2684.23C356.916 2683.44 357.33 2682.65 358.166 2682.05" fill="white" fill-opacity="0.2"/>
<path fill-rule="evenodd" clip-rule="evenodd" d="M358.159 2697.05C358.573 2696.75 359.079 2696.5 359.646 2696.32C360.214 2696.15 360.833 2696.04 361.468 2696.01C362.102 2695.98 362.741 2696.03 363.345 2696.15C363.95 2696.27 364.51 2696.47 364.993 2696.72L407.058 2719.05L449.123 2696.72C450.103 2696.24 451.352 2696 452.604 2696.08C453.856 2696.15 455.014 2696.52 455.833 2697.11C456.651 2697.7 457.067 2698.47 456.991 2699.24C456.916 2700.02 456.355 2700.75 455.427 2701.28L410.21 2725.28C409.332 2725.74 408.214 2726 407.058 2726C405.902 2726 404.784 2725.74 403.906 2725.28L358.689 2701.28C357.715 2700.76 357.112 2700.02 357.014 2699.23C356.916 2698.44 357.33 2697.65 358.166 2697.05" fill="white" fill-opacity="0.2"/>
<path fill-rule="evenodd" clip-rule="evenodd" d="M473.159 2667.05C473.573 2666.75 474.079 2666.5 474.646 2666.32C475.214 2666.15 475.833 2666.04 476.468 2666.01C477.102 2665.98 477.741 2666.03 478.345 2666.15C478.95 2666.27 479.51 2666.47 479.993 2666.72L522.058 2689.05L564.123 2666.72C565.103 2666.24 566.352 2666 567.604 2666.08C568.856 2666.15 570.014 2666.52 570.833 2667.11C571.651 2667.7 572.067 2668.47 571.991 2669.24C571.916 2670.02 571.355 2670.75 570.427 2671.28L525.21 2695.28C524.332 2695.74 523.214 2696 522.058 2696C520.902 2696 519.784 2695.74 518.906 2695.28L473.689 2671.28C472.715 2670.76 472.112 2670.02 472.014 2669.23C471.916 2668.44 472.33 2667.65 473.166 2667.05" fill="#6D6D6D" fill-opacity="0.2"/>
<path fill-rule="evenodd" clip-rule="evenodd" d="M473.159 2682.05C473.573 2681.75 474.079 2681.5 474.646 2681.32C475.214 2681.15 475.833 2681.04 476.468 2681.01C477.102 2680.98 477.741 2681.03 478.345 2681.15C478.95 2681.27 479.51 2681.47 479.993 2681.72L522.058 2704.05L564.123 2681.72C565.103 2681.24 566.352 2681 567.604 2681.08C568.856 2681.15 570.014 2681.52 570.833 2682.11C571.651 2682.7 572.067 2683.47 571.991 2684.24C571.916 2685.02 571.355 2685.75 570.427 2686.28L525.21 2710.28C524.332 2710.74 523.214 2711 522.058 2711C520.902 2711 519.784 2710.74 518.906 2710.28L473.689 2686.28C472.715 2685.76 472.112 2685.02 472.014 2684.23C471.916 2683.44 472.33 2682.65 473.166 2682.05" fill="white" fill-opacity="0.2"/>
<path fill-rule="evenodd" clip-rule="evenodd" d="M473.159 2697.05C473.573 2696.75 474.079 2696.5 474.646 2696.32C475.214 2696.15 475.833 2696.04 476.468 2696.01C477.102 2695.98 477.741 2696.03 478.345 2696.15C478.95 2696.27 479.51 2696.47 479.993 2696.72L522.058 2719.05L564.123 2696.72C565.103 2696.24 566.352 2696 567.604 2696.08C568.856 2696.15 570.014 2696.52 570.833 2697.11C571.651 2697.7 572.067 2698.47 571.991 2699.24C571.916 2700.02 571.355 2700.75 570.427 2701.28L525.21 2725.28C524.332 2725.74 523.214 2726 522.058 2726C520.902 2726 519.784 2725.74 518.906 2725.28L473.689 2701.28C472.715 2700.76 472.112 2700.02 472.014 2699.23C471.916 2698.44 472.33 2697.65 473.166 2697.05" fill="white" fill-opacity="0.2"/>
<path fill-rule="evenodd" clip-rule="evenodd" d="M588.159 2667.05C588.573 2666.75 589.079 2666.5 589.646 2666.32C590.214 2666.15 590.833 2666.04 591.468 2666.01C592.102 2665.98 592.741 2666.03 593.345 2666.15C593.95 2666.27 594.51 2666.47 594.993 2666.72L637.058 2689.05L679.123 2666.72C680.103 2666.24 681.352 2666 682.604 2666.08C683.856 2666.15 685.014 2666.52 685.833 2667.11C686.651 2667.7 687.067 2668.47 686.991 2669.24C686.916 2670.02 686.355 2670.75 685.427 2671.28L640.21 2695.28C639.332 2695.74 638.214 2696 637.058 2696C635.902 2696 634.784 2695.74 633.906 2695.28L588.689 2671.28C587.715 2670.76 587.112 2670.02 587.014 2669.23C586.916 2668.44 587.33 2667.65 588.166 2667.05" fill="#6D6D6D" fill-opacity="0.2"/>
<path fill-rule="evenodd" clip-rule="evenodd" d="M588.159 2682.05C588.573 2681.75 589.079 2681.5 589.646 2681.32C590.214 2681.15 590.833 2681.04 591.468 2681.01C592.102 2680.98 592.741 2681.03 593.345 2681.15C593.95 2681.27 594.51 2681.47 594.993 2681.72L637.058 2704.05L679.123 2681.72C680.103 2681.24 681.352 2681 682.604 2681.08C683.856 2681.15 685.014 2681.52 685.833 2682.11C686.651 2682.7 687.067 2683.47 686.991 2684.24C686.916 2685.02 686.355 2685.75 685.427 2686.28L640.21 2710.28C639.332 2710.74 638.214 2711 637.058 2711C635.902 2711 634.784 2710.74 633.906 2710.28L588.689 2686.28C587.715 2685.76 587.112 2685.02 587.014 2684.23C586.916 2683.44 587.33 2682.65 588.166 2682.05" fill="white" fill-opacity="0.2"/>
<path fill-rule="evenodd" clip-rule="evenodd" d="M588.159 2697.05C588.573 2696.75 589.079 2696.5 589.646 2696.32C590.214 2696.15 590.833 2696.04 591.468 2696.01C592.102 2695.98 592.741 2696.03 593.345 2696.15C593.95 2696.27 594.51 2696.47 594.993 2696.72L637.058 2719.05L679.123 2696.72C680.103 2696.24 681.352 2696 682.604 2696.08C683.856 2696.15 685.014 2696.52 685.833 2697.11C686.651 2697.7 687.067 2698.47 686.991 2699.24C686.916 2700.02 686.355 2700.75 685.427 2701.28L640.21 2725.28C639.332 2725.74 638.214 2726 637.058 2726C635.902 2726 634.784 2725.74 633.906 2725.28L588.689 2701.28C587.715 2700.76 587.112 2700.02 587.014 2699.23C586.916 2698.44 587.33 2697.65 588.166 2697.05" fill="white" fill-opacity="0.2"/>
</g>
<defs>
<clipPath id="clip0_2291_330">
<rect width="700" height="3000" fill="white"/>
</clipPath>
</defs>
</svg>
